<svg id="svg" version="1.1" xmlns="http://www.w3.org/2000/svg" xmlns:xlink="http://www.w3.org/1999/xlink" width="400" height="400" viewBox="0, 0, 400,400"><g id="svgg"><path id="path0" d="M126.333 64.369 C 96.874 67.695,82.500 86.988,81.431 124.638 L 81.229 131.775 92.698 131.556 C 99.006 131.435,107.317 131.336,111.167 131.335 L 118.167 131.333 118.191 124.750 C 118.374 74.901,173.569 70.184,233.460 114.899 C 238.106 118.369,237.773 117.790,231.931 112.248 C 195.834 78.004,157.901 60.805,126.333 64.369 M296.495 152.730 C 257.194 192.462,257.745 191.866,254.903 197.729 C 253.543 200.536,252.810 201.454,253.156 199.917 C 253.250 199.504,255.355 187.092,257.835 172.333 C 260.316 157.575,262.423 145.151,262.519 144.724 L 262.693 143.947 241.596 144.183 C 229.993 144.313,220.459 144.453,220.410 144.495 C 220.360 144.536,219.652 148.304,218.836 152.868 C 215.878 169.422,204.558 232.972,201.150 252.167 C 199.229 262.983,197.582 272.171,197.489 272.583 L 197.321 273.333 218.300 273.333 L 239.280 273.333 239.471 272.417 C 239.577 271.912,242.065 258.375,245.002 242.333 C 247.938 226.292,250.384 212.942,250.437 212.667 C 250.490 212.392,250.721 213.789,250.951 215.773 C 251.641 221.734,253.614 227.491,256.201 231.092 C 256.865 232.017,259.140 235.637,261.255 239.137 C 267.310 249.153,278.082 266.633,280.437 270.261 L 282.581 273.565 308.153 273.808 C 322.218 273.942,333.772 274.003,333.828 273.943 C 333.884 273.882,332.770 271.808,331.353 269.333 C 314.990 240.769,300.316 214.283,299.977 212.706 C 299.074 208.494,299.595 207.624,309.921 196.106 C 314.640 190.844,321.875 182.771,326.000 178.168 C 330.125 173.564,338.653 164.058,344.950 157.043 C 351.248 150.028,356.348 144.243,356.283 144.188 C 356.219 144.132,344.767 143.983,330.833 143.857 L 305.500 143.627 296.495 152.730 M93.762 144.578 L 76.691 144.673 76.357 145.920 C 75.508 149.099,69.352 176.130,69.455 176.232 C 69.518 176.296,89.654 176.512,114.202 176.712 C 164.741 177.123,160.624 176.861,163.979 179.878 C 169.579 184.912,165.481 195.691,156.838 198.665 C 154.962 199.311,153.980 199.335,128.031 199.381 C 113.256 199.408,92.709 199.520,82.372 199.631 L 63.578 199.833 54.973 236.000 C 50.240 255.892,46.267 272.604,46.145 273.138 L 45.923 274.109 65.525 273.880 C 76.307 273.754,85.201 273.577,85.290 273.488 C 85.379 273.399,87.528 264.449,90.066 253.601 C 92.603 242.752,94.714 233.850,94.756 233.817 C 94.799 233.785,100.908 233.660,108.333 233.540 L 121.833 233.321 123.568 236.744 C 126.803 243.127,134.872 254.547,144.944 267.000 C 163.598 290.063,181.650 305.397,201.803 315.301 C 232.246 330.261,261.692 327.141,276.716 307.364 C 278.635 304.837,278.630 304.822,276.120 305.457 C 243.217 313.786,199.584 286.445,165.213 235.961 L 162.349 231.755 166.193 230.163 C 187.484 221.347,199.639 204.336,200.848 181.667 C 201.903 161.892,194.240 150.023,177.438 145.407 L 174.167 144.509 142.500 144.496 C 125.083 144.489,103.151 144.525,93.762 144.578 " stroke="none" fill="#040404" fill-rule="evenodd"></path><path id="path1" d="M183.833 0.501 C 65.761 10.429,-17.762 118.985,3.026 235.500 C 17.654 317.486,82.514 382.346,164.500 396.974 C 177.519 399.296,184.185 399.833,200.000 399.833 C 297.356 399.833,379.948 330.928,396.974 235.500 C 399.296 222.481,399.833 215.815,399.833 200.000 C 399.833 184.185,399.296 177.519,396.974 164.500 C 378.960 63.536,285.886 -8.079,183.833 0.501 M183.090 36.640 C 203.227 39.761,223.653 48.670,245.796 63.987 C 260.565 74.203,277.410 89.844,292.301 107.167 C 301.041 117.333,311.239 130.561,310.731 131.069 C 310.571 131.229,300.321 131.453,287.953 131.567 L 265.466 131.774 264.301 130.303 C 246.714 108.096,232.446 93.690,214.667 80.187 C 184.874 57.559,153.943 47.976,128.500 53.490 C 124.420 54.375,118.846 56.050,115.421 57.420 C 108.064 60.365,122.154 48.908,131.833 44.075 C 146.788 36.607,165.433 33.903,183.090 36.640 M144.147 64.504 C 172.199 67.785,202.348 84.183,231.931 112.248 C 237.773 117.790,238.106 118.369,233.460 114.899 C 211.346 98.389,186.786 86.874,169.009 84.682 C 137.607 80.809,118.296 96.034,118.191 124.750 L 118.167 131.333 111.167 131.335 C 107.317 131.336,99.006 131.435,92.698 131.556 L 81.229 131.775 81.431 124.638 C 82.688 80.329,104.081 59.817,144.147 64.504 M356.283 144.188 C 356.348 144.243,351.248 150.028,344.950 157.043 C 338.653 164.058,330.125 173.564,326.000 178.168 C 321.875 182.771,314.640 190.844,309.921 196.106 C 299.595 207.624,299.074 208.494,299.977 212.706 C 300.316 214.283,314.990 240.769,331.353 269.333 C 332.770 271.808,333.884 273.882,333.828 273.943 C 333.772 274.003,322.218 273.942,308.153 273.808 L 282.581 273.565 280.437 270.261 C 278.082 266.633,267.310 249.153,261.255 239.137 C 259.140 235.637,256.865 232.017,256.201 231.092 C 253.614 227.491,251.641 221.734,250.951 215.773 C 250.721 213.789,250.490 212.392,250.437 212.667 C 250.384 212.942,247.938 226.292,245.002 242.333 C 242.065 258.375,239.577 271.912,239.471 272.417 L 239.280 273.333 218.300 273.333 L 197.321 273.333 197.489 272.583 C 197.582 272.171,199.229 262.983,201.150 252.167 C 214.620 176.310,220.296 144.586,220.416 144.488 C 220.462 144.451,229.993 144.313,241.596 144.183 L 262.693 143.947 262.519 144.724 C 262.423 145.151,260.316 157.575,257.835 172.333 C 255.355 187.092,253.250 199.504,253.156 199.917 C 252.857 201.244,253.480 200.713,254.135 199.082 C 255.553 195.553,260.987 188.281,265.029 184.504 C 266.008 183.589,275.504 174.015,286.132 163.228 L 305.455 143.615 330.811 143.851 C 344.757 143.981,356.219 144.132,356.283 144.188 M177.438 145.407 C 194.240 150.023,201.903 161.892,200.848 181.667 C 199.639 204.336,187.484 221.347,166.193 230.163 L 162.349 231.755 165.213 235.961 C 199.584 286.445,243.217 313.786,276.120 305.457 C 278.630 304.822,278.635 304.837,276.716 307.364 C 263.328 324.987,237.214 329.633,210.446 319.154 C 187.475 310.161,166.069 293.118,144.944 267.000 C 134.872 254.547,126.803 243.127,123.568 236.744 L 121.833 233.321 108.333 233.540 C 100.908 233.660,94.799 233.785,94.756 233.817 C 94.714 233.850,92.603 242.752,90.066 253.601 C 87.528 264.449,85.379 273.399,85.290 273.488 C 85.060 273.718,46.000 274.148,46.000 273.921 C 46.000 273.818,46.536 271.506,47.192 268.783 C 47.847 266.061,48.657 262.633,48.992 261.167 C 49.606 258.475,58.234 222.178,60.680 212.000 C 61.407 208.975,62.356 205.000,62.789 203.167 L 63.577 199.833 82.372 199.631 C 92.709 199.520,113.276 199.408,128.076 199.381 L 154.985 199.333 157.182 198.506 C 165.543 195.359,169.403 185.227,164.184 180.127 C 160.808 176.828,165.177 177.127,114.202 176.712 C 89.654 176.512,69.518 176.296,69.455 176.232 C 69.352 176.130,75.508 149.099,76.357 145.920 L 76.691 144.673 93.762 144.578 C 103.151 144.525,125.083 144.489,142.500 144.496 L 174.167 144.509 177.438 145.407 M333.315 287.489 C 333.621 287.678,332.161 292.563,331.623 293.150 C 331.464 293.324,331.333 293.669,331.333 293.916 C 331.333 294.163,331.033 294.986,330.667 295.745 C 330.300 296.504,330.000 297.256,330.000 297.415 C 330.000 297.894,324.394 309.151,323.498 310.471 C 323.041 311.145,322.667 311.811,322.667 311.952 C 322.667 312.093,322.404 312.498,322.083 312.854 C 321.762 313.209,321.287 313.912,321.027 314.417 C 320.767 314.921,320.429 315.333,320.277 315.333 C 320.125 315.333,320.000 315.521,320.000 315.750 C 319.999 315.979,319.624 316.602,319.166 317.135 C 318.708 317.668,318.333 318.199,318.333 318.316 C 318.333 318.432,317.808 319.084,317.167 319.765 C 316.525 320.445,316.000 321.137,316.000 321.303 C 316.000 321.706,305.302 332.413,305.100 332.211 C 305.014 332.125,304.319 332.642,303.557 333.361 C 302.794 334.079,301.982 334.667,301.752 334.667 C 301.522 334.667,301.333 334.791,301.333 334.944 C 301.333 335.096,300.921 335.434,300.417 335.694 C 299.912 335.954,299.209 336.429,298.854 336.750 C 298.498 337.071,298.011 337.333,297.770 337.333 C 297.530 337.333,297.333 337.453,297.333 337.599 C 297.333 337.745,296.246 338.428,294.917 339.117 C 293.587 339.806,292.275 340.505,292.000 340.669 C 281.066 347.217,256.634 350.873,243.667 347.904 C 234.064 345.704,228.467 344.147,222.000 341.874 C 213.075 338.737,210.792 337.801,203.167 334.146 C 183.583 324.762,164.351 309.656,151.622 293.658 C 146.016 286.613,145.736 285.287,150.927 290.375 C 206.546 344.880,269.010 345.091,295.552 290.864 L 297.495 286.894 315.254 287.098 C 325.021 287.210,333.149 287.386,333.315 287.489 " stroke="none" fill="#f3c32c" fill-rule="evenodd"></path><path id="path2" d="M158.000 36.171 C 141.052 38.438,124.609 45.982,114.853 55.966 C 112.896 57.969,113.052 58.369,115.421 57.420 C 118.483 56.195,123.285 54.714,127.167 53.798 C 161.089 45.797,202.143 63.852,241.554 104.107 C 250.219 112.957,254.130 117.461,264.301 130.303 L 265.466 131.774 287.953 131.567 C 300.321 131.453,310.571 131.229,310.731 131.069 C 311.239 130.561,301.041 117.333,292.301 107.167 C 277.410 89.844,260.565 74.203,245.796 63.987 C 214.565 42.383,183.987 32.695,158.000 36.171 M295.552 290.864 C 269.009 345.092,206.548 344.881,150.927 290.375 C 145.736 285.287,146.016 286.613,151.622 293.658 C 164.351 309.656,183.583 324.762,203.167 334.146 C 210.792 337.801,213.075 338.737,222.000 341.874 C 228.467 344.147,234.064 345.704,243.667 347.904 C 256.634 350.873,281.066 347.217,292.000 340.669 C 292.275 340.505,293.587 339.806,294.917 339.117 C 296.246 338.428,297.333 337.745,297.333 337.599 C 297.333 337.453,297.530 337.333,297.770 337.333 C 298.011 337.333,298.498 337.071,298.854 336.750 C 299.209 336.429,299.912 335.954,300.417 335.694 C 300.921 335.434,301.333 335.096,301.333 334.944 C 301.333 334.791,301.522 334.667,301.752 334.667 C 301.982 334.667,302.794 334.079,303.557 333.361 C 304.319 332.642,305.014 332.125,305.100 332.211 C 305.302 332.413,316.000 321.706,316.000 321.303 C 316.000 321.137,316.525 320.445,317.167 319.765 C 317.808 319.084,318.333 318.432,318.333 318.316 C 318.333 318.199,318.708 317.668,319.166 317.135 C 319.624 316.602,319.999 315.979,320.000 315.750 C 320.000 315.521,320.125 315.333,320.277 315.333 C 320.429 315.333,320.767 314.921,321.027 314.417 C 321.287 313.912,321.762 313.209,322.083 312.854 C 322.404 312.498,322.667 312.093,322.667 311.952 C 322.667 311.811,323.041 311.145,323.498 310.471 C 324.394 309.151,330.000 297.894,330.000 297.415 C 330.000 297.256,330.300 296.504,330.667 295.745 C 331.033 294.986,331.333 294.163,331.333 293.916 C 331.333 293.669,331.464 293.324,331.623 293.150 C 332.161 292.563,333.621 287.678,333.315 287.489 C 333.149 287.386,325.021 287.210,315.254 287.098 L 297.495 286.894 295.552 290.864 " stroke="none" fill="#fbfbf9" fill-rule="evenodd"></path></g></svg>