<svg id="svg" version="1.1" xmlns="http://www.w3.org/2000/svg" xmlns:xlink="http://www.w3.org/1999/xlink" width="400" height="400" viewBox="0, 0, 400,400"><g id="svgg"><path id="path0" d="M158.000 36.171 C 141.025 38.442,126.006 45.278,115.250 55.629 C 112.201 58.564,112.079 58.888,114.417 57.860 C 143.059 45.253,179.299 53.324,214.667 80.187 C 231.903 93.278,253.659 115.277,264.174 130.247 L 265.167 131.661 281.167 131.591 C 289.967 131.553,300.349 131.442,304.239 131.344 L 311.312 131.167 307.434 126.000 C 269.016 74.805,224.937 43.127,183.090 36.640 C 177.122 35.715,163.338 35.457,158.000 36.171 M126.333 64.372 C 96.293 67.800,81.333 88.717,81.333 127.287 L 81.333 131.775 93.388 131.554 C 100.018 131.433,108.305 131.333,111.805 131.333 L 118.167 131.333 118.186 125.083 C 118.342 75.194,173.017 70.048,232.619 114.314 C 234.885 115.996,236.804 117.307,236.884 117.227 C 236.964 117.147,234.736 114.904,231.932 112.243 C 195.828 77.979,157.872 60.772,126.333 64.372 M296.161 153.045 C 256.078 193.624,257.543 192.033,254.707 198.068 C 253.532 200.569,252.811 201.430,253.160 199.917 C 253.255 199.504,255.359 187.167,257.835 172.500 C 260.311 157.833,262.426 145.408,262.535 144.888 L 262.732 143.943 241.616 144.181 C 230.002 144.312,220.457 144.455,220.406 144.498 C 220.307 144.581,215.787 169.827,204.349 234.167 C 200.667 254.883,197.579 272.171,197.487 272.583 L 197.321 273.333 218.303 273.333 L 239.286 273.333 239.636 271.583 C 239.979 269.870,245.842 237.964,248.958 220.856 L 250.532 212.212 250.948 215.788 C 251.709 222.335,253.286 226.680,256.893 232.167 C 258.098 234.000,261.853 240.075,265.237 245.667 C 273.161 258.759,281.231 271.708,282.129 272.771 L 282.833 273.605 308.462 273.832 L 334.090 274.058 333.416 272.946 C 333.045 272.334,326.184 260.208,318.170 246.000 C 310.155 231.792,302.868 218.892,301.977 217.333 C 299.444 212.907,299.095 209.788,300.799 206.792 C 301.411 205.714,331.293 172.119,353.461 147.583 L 356.699 144.000 347.766 144.000 C 342.853 143.999,331.333 143.907,322.167 143.795 L 305.500 143.590 296.161 153.045 M90.869 144.667 L 76.571 144.833 72.965 160.333 C 70.982 168.858,69.353 175.928,69.346 176.044 C 69.329 176.330,89.830 176.620,127.500 176.868 C 157.967 177.068,158.884 177.093,160.656 177.755 C 163.290 178.739,165.764 181.295,166.318 183.603 C 167.332 187.829,164.425 194.374,160.383 196.968 C 156.625 199.379,159.936 199.218,109.345 199.460 C 84.326 199.580,63.764 199.788,63.651 199.922 C 63.538 200.057,62.602 203.767,61.569 208.167 C 60.536 212.567,56.611 229.123,52.846 244.958 C 49.081 260.793,46.000 273.812,46.000 273.890 C 46.000 274.064,70.532 273.900,79.130 273.669 L 85.426 273.500 90.055 253.686 C 92.600 242.789,94.717 233.847,94.758 233.816 C 94.800 233.785,100.908 233.666,108.333 233.553 L 121.833 233.347 123.577 236.779 C 129.558 248.549,149.553 274.034,163.373 287.500 C 205.126 328.184,254.170 336.781,276.702 307.364 C 278.637 304.837,278.632 304.821,276.120 305.457 C 243.202 313.790,199.966 286.691,165.215 235.946 L 162.325 231.725 163.912 231.136 C 187.481 222.392,200.737 203.644,200.776 179.000 C 200.808 159.062,192.265 147.953,174.500 144.832 C 171.421 144.291,130.095 144.209,90.869 144.667 M146.667 286.874 C 146.667 287.729,154.281 297.153,158.864 301.972 C 180.400 324.614,207.974 339.711,242.143 347.567 L 247.500 348.799 255.500 348.804 C 290.298 348.826,316.324 330.765,330.198 296.968 C 331.935 292.737,333.729 287.618,333.541 287.430 C 333.474 287.362,325.324 287.214,315.431 287.100 L 297.444 286.893 295.558 290.816 C 278.048 327.230,243.309 340.463,204.333 325.566 C 185.471 318.356,164.842 304.608,149.509 289.028 C 147.375 286.860,146.667 286.323,146.667 286.874 " stroke="none" fill="#c8d600" fill-rule="evenodd"></path><path id="path1" d="M0.000 200.000 L 0.000 400.000 200.000 400.000 L 400.000 400.000 400.000 200.000 L 400.000 0.000 200.000 0.000 L 0.000 0.000 0.000 200.000 M176.000 35.642 C 176.000 35.812,177.237 36.013,178.750 36.088 C 180.262 36.164,181.861 36.348,182.302 36.499 C 182.945 36.718,183.048 36.679,182.821 36.303 C 182.597 35.931,182.638 35.912,183.019 36.213 C 183.284 36.421,184.100 36.676,184.833 36.779 C 185.567 36.882,186.992 37.130,188.000 37.330 C 189.008 37.531,190.322 37.780,190.920 37.884 C 191.517 37.988,192.089 38.207,192.189 38.370 C 192.290 38.533,192.880 38.667,193.500 38.667 C 194.120 38.667,194.720 38.817,194.833 39.000 C 194.947 39.183,195.555 39.333,196.186 39.333 C 196.817 39.333,197.333 39.483,197.333 39.667 C 197.333 39.850,197.585 40.000,197.893 40.000 C 198.402 40.000,199.738 40.369,201.500 40.996 C 203.628 41.754,204.432 41.941,204.858 41.778 C 205.119 41.677,205.333 41.749,205.333 41.938 C 205.333 42.126,205.783 42.379,206.333 42.500 C 206.883 42.621,207.333 42.858,207.333 43.026 C 207.333 43.195,207.783 43.333,208.333 43.333 C 208.883 43.333,209.333 43.483,209.333 43.667 C 209.333 43.850,209.621 44.000,209.972 44.000 C 210.324 44.000,210.699 44.188,210.806 44.417 C 210.961 44.750,211.039 44.750,211.194 44.417 C 211.484 43.797,211.899 43.912,212.097 44.667 C 212.214 45.117,212.551 45.333,213.135 45.333 C 213.611 45.333,214.000 45.483,214.000 45.667 C 214.000 45.850,214.291 46.000,214.647 46.000 C 215.003 46.000,215.387 46.150,215.500 46.333 C 215.613 46.517,215.997 46.667,216.353 46.667 C 216.709 46.667,217.000 46.817,217.000 47.000 C 217.000 47.183,217.291 47.333,217.647 47.333 C 218.003 47.333,218.387 47.483,218.500 47.667 C 218.613 47.850,218.997 48.000,219.353 48.000 C 219.709 48.000,220.000 48.150,220.000 48.333 C 220.000 48.517,220.300 48.667,220.667 48.667 C 221.033 48.667,221.333 48.807,221.333 48.978 C 221.333 49.284,222.219 49.682,222.796 49.634 C 222.959 49.621,223.184 49.749,223.296 49.920 C 223.408 50.091,224.625 50.816,226.000 51.532 C 227.375 52.248,228.550 52.946,228.611 53.083 C 228.672 53.221,229.010 53.333,229.361 53.333 C 229.713 53.333,230.000 53.446,230.000 53.584 C 230.000 53.722,230.713 54.206,231.583 54.659 C 232.454 55.113,233.242 55.580,233.333 55.697 C 233.425 55.814,234.159 56.244,234.964 56.653 C 235.768 57.061,236.734 57.681,237.110 58.031 C 237.485 58.380,237.989 58.667,238.230 58.667 C 238.470 58.667,238.667 58.805,238.667 58.974 C 238.667 59.142,239.117 59.379,239.667 59.500 C 240.217 59.621,240.667 59.907,240.667 60.137 C 240.667 60.366,241.079 60.767,241.583 61.026 C 242.088 61.286,242.576 61.600,242.670 61.723 C 242.763 61.846,243.053 61.996,243.313 62.057 C 243.574 62.117,244.232 62.579,244.776 63.083 C 245.320 63.587,245.900 64.000,246.064 64.000 C 246.228 64.000,246.767 64.375,247.261 64.833 C 247.755 65.292,248.341 65.667,248.563 65.667 C 248.785 65.667,249.087 65.864,249.233 66.106 C 249.380 66.348,250.175 67.006,251.000 67.567 C 251.825 68.129,252.786 68.907,253.135 69.295 C 253.484 69.683,253.945 70.000,254.158 70.000 C 254.372 70.000,254.868 70.338,255.262 70.750 C 256.603 72.155,257.222 72.667,257.584 72.667 C 257.782 72.667,258.021 72.854,258.114 73.083 C 258.241 73.399,258.365 73.381,258.623 73.010 C 258.810 72.740,259.080 72.636,259.222 72.778 C 259.364 72.920,259.273 73.164,259.020 73.321 C 258.454 73.671,259.285 74.667,260.143 74.667 C 260.431 74.667,260.667 74.833,260.667 75.036 C 260.667 75.239,260.899 75.315,261.184 75.206 C 261.469 75.097,261.614 75.150,261.505 75.325 C 261.398 75.499,262.068 76.360,262.996 77.237 C 265.681 79.778,265.506 79.678,266.188 79.056 C 266.758 78.536,266.769 78.537,266.371 79.067 C 265.872 79.732,268.024 82.230,268.723 81.798 C 268.958 81.654,269.011 81.712,268.864 81.951 C 268.572 82.423,269.530 83.457,269.994 83.171 C 270.185 83.052,270.242 83.184,270.127 83.483 C 270.001 83.811,270.114 84.000,270.437 84.000 C 270.716 84.000,270.996 84.154,271.059 84.342 C 271.378 85.300,281.818 95.299,282.097 94.914 C 282.300 94.634,282.333 94.696,282.199 95.108 C 281.962 95.841,282.825 96.807,283.414 96.468 C 283.645 96.335,283.721 96.351,283.583 96.503 C 283.273 96.844,284.313 98.052,284.707 97.808 C 284.864 97.711,284.908 97.851,284.805 98.119 C 284.689 98.422,284.880 98.690,285.309 98.826 C 285.689 98.946,286.000 99.238,286.000 99.474 C 286.000 99.710,286.424 100.263,286.942 100.702 C 287.460 101.141,288.248 102.024,288.692 102.664 C 289.136 103.304,289.987 104.290,290.583 104.854 C 291.179 105.419,291.667 106.058,291.667 106.274 C 291.667 106.490,291.892 106.667,292.167 106.667 C 292.442 106.667,292.667 106.901,292.667 107.186 C 292.667 107.472,292.817 107.613,293.000 107.500 C 293.183 107.387,293.334 107.490,293.334 107.730 C 293.334 108.317,294.844 110.045,295.117 109.772 C 295.236 109.653,295.333 109.806,295.333 110.111 C 295.333 110.417,295.483 110.667,295.667 110.667 C 295.850 110.667,296.000 110.855,296.000 111.085 C 296.000 111.315,296.563 112.112,297.250 112.855 C 297.938 113.598,299.019 114.872,299.654 115.687 C 300.289 116.501,300.927 117.217,301.071 117.278 C 301.215 117.339,301.333 117.610,301.333 117.881 C 301.333 118.151,301.446 118.305,301.583 118.221 C 301.860 118.054,302.528 118.671,302.554 119.118 C 302.588 119.728,303.510 120.667,304.074 120.667 C 304.400 120.667,304.667 120.826,304.667 121.020 C 304.667 121.214,304.817 121.280,305.000 121.167 C 305.183 121.053,305.333 121.111,305.333 121.294 C 305.333 121.477,305.183 121.720,305.000 121.833 C 304.817 121.947,304.667 122.189,304.667 122.373 C 304.667 122.556,304.817 122.613,305.000 122.500 C 305.183 122.387,305.333 122.528,305.333 122.814 C 305.333 123.099,305.483 123.333,305.667 123.333 C 305.850 123.333,306.005 123.521,306.011 123.750 C 306.027 124.404,307.574 126.000,308.191 126.000 C 308.599 126.000,308.656 126.112,308.403 126.417 C 308.153 126.718,308.295 127.110,308.918 127.833 C 309.460 128.463,309.829 128.678,309.917 128.414 C 309.994 128.184,310.210 128.091,310.397 128.206 C 310.618 128.343,310.596 128.504,310.334 128.666 C 309.825 128.981,310.840 130.667,311.538 130.667 C 311.792 130.667,312.000 130.817,312.000 131.000 C 312.000 131.211,309.562 131.333,305.353 131.333 C 301.531 131.333,298.623 131.467,298.511 131.649 C 298.393 131.840,291.835 131.975,281.892 131.991 L 265.468 132.017 264.734 131.173 C 264.330 130.708,264.000 130.190,264.000 130.020 C 264.000 129.850,263.698 129.616,263.328 129.498 C 262.959 129.381,262.732 129.163,262.825 129.014 C 262.917 128.865,262.469 128.171,261.830 127.473 C 261.190 126.774,260.667 126.088,260.667 125.948 C 260.667 125.807,260.104 125.121,259.417 124.423 C 258.729 123.725,258.136 122.989,258.098 122.787 C 258.060 122.585,257.498 121.873,256.848 121.204 C 256.198 120.535,255.663 119.878,255.658 119.744 C 255.636 119.157,252.982 116.639,252.620 116.862 C 252.380 117.010,252.320 116.959,252.462 116.728 C 252.890 116.035,251.663 114.589,251.062 115.078 C 250.618 115.438,250.576 115.408,250.777 114.874 C 251.044 114.162,250.434 113.232,249.911 113.555 C 249.720 113.673,249.658 113.617,249.774 113.430 C 249.958 113.131,248.673 111.633,246.786 109.947 C 246.445 109.643,245.889 108.995,245.550 108.508 C 245.182 107.978,244.739 107.695,244.450 107.806 C 244.183 107.909,244.031 107.882,244.110 107.746 C 244.400 107.254,243.679 105.953,243.253 106.199 C 243.022 106.332,242.949 106.313,243.090 106.158 C 243.404 105.813,241.008 103.289,240.604 103.539 C 240.446 103.636,240.338 103.593,240.365 103.441 C 240.484 102.752,240.289 102.621,239.769 103.043 C 239.459 103.294,239.308 103.328,239.434 103.118 C 239.560 102.908,239.450 102.655,239.191 102.555 C 238.931 102.456,238.666 102.027,238.601 101.604 C 238.529 101.130,238.294 100.876,237.992 100.944 C 237.721 101.006,237.616 100.940,237.757 100.799 C 238.077 100.478,235.665 97.962,235.271 98.205 C 235.113 98.303,235.025 98.184,235.075 97.941 C 235.126 97.697,234.908 97.520,234.587 97.546 C 234.257 97.572,234.101 97.439,234.225 97.239 C 234.364 97.014,234.225 96.970,233.841 97.118 C 233.310 97.322,233.292 97.279,233.692 96.758 C 233.941 96.433,234.025 96.267,233.878 96.389 C 233.603 96.618,232.851 96.075,231.570 94.721 C 228.800 91.792,227.852 90.952,228.498 91.996 C 228.614 92.184,228.483 92.242,228.195 92.131 C 227.916 92.024,227.701 91.838,227.717 91.718 C 227.839 90.797,227.655 90.595,227.103 91.043 C 226.755 91.324,226.632 91.345,226.781 91.097 C 227.039 90.666,226.364 89.333,225.887 89.333 C 225.730 89.333,225.180 88.883,224.667 88.333 C 224.153 87.783,223.622 87.333,223.486 87.333 C 223.351 87.333,223.025 87.071,222.762 86.750 C 222.469 86.392,222.376 86.360,222.523 86.667 C 222.655 86.942,222.253 86.633,221.631 85.980 C 221.009 85.328,219.787 84.308,218.917 83.714 C 218.046 83.120,217.333 82.502,217.333 82.340 C 217.333 82.178,217.029 81.948,216.656 81.830 C 216.283 81.712,215.615 81.252,215.171 80.807 C 214.727 80.363,214.220 80.000,214.044 80.000 C 213.868 80.000,213.207 79.512,212.576 78.917 C 210.817 77.256,210.031 76.667,209.576 76.667 C 209.348 76.667,208.973 76.367,208.744 76.000 C 208.515 75.633,208.116 75.333,207.858 75.333 C 207.600 75.333,207.322 75.146,207.240 74.917 C 207.158 74.688,206.972 74.612,206.825 74.748 C 206.679 74.885,206.996 75.372,207.529 75.831 C 208.063 76.290,208.306 76.666,208.068 76.666 C 207.527 76.667,205.962 75.130,206.080 74.713 C 206.190 74.322,204.307 72.668,203.750 72.667 C 203.521 72.667,203.333 72.517,203.333 72.333 C 203.333 72.150,203.137 72.000,202.896 72.000 C 202.656 72.000,202.137 71.700,201.743 71.333 C 201.350 70.967,200.865 70.667,200.667 70.667 C 200.468 70.667,199.983 70.367,199.590 70.000 C 199.196 69.633,198.678 69.333,198.437 69.333 C 198.197 69.333,198.000 69.183,198.000 69.000 C 198.000 68.817,197.769 68.667,197.486 68.667 C 197.203 68.667,196.656 68.372,196.269 68.012 C 195.882 67.651,195.455 67.425,195.321 67.508 C 195.186 67.591,194.890 67.436,194.664 67.163 C 194.437 66.890,194.045 66.667,193.793 66.667 C 193.540 66.667,193.333 66.517,193.333 66.333 C 193.333 66.150,193.033 66.000,192.667 66.000 C 192.300 66.000,192.000 65.850,192.000 65.667 C 192.000 65.483,191.700 65.333,191.333 65.333 C 190.967 65.333,190.667 65.183,190.667 65.000 C 190.667 64.817,190.367 64.667,190.000 64.667 C 189.633 64.667,189.333 64.517,189.333 64.333 C 189.333 64.150,189.033 64.000,188.667 64.000 C 188.300 64.000,188.000 63.834,188.000 63.631 C 188.000 63.428,187.786 63.344,187.524 63.445 C 187.263 63.545,186.869 63.411,186.650 63.147 C 186.431 62.883,186.045 62.667,185.793 62.667 C 185.540 62.667,185.333 62.517,185.333 62.333 C 185.333 62.150,185.046 62.000,184.694 62.000 C 184.343 62.000,183.968 61.813,183.861 61.583 C 183.706 61.250,183.628 61.250,183.472 61.583 C 183.183 62.203,182.767 62.088,182.570 61.333 C 182.466 60.934,182.115 60.667,181.698 60.667 C 181.314 60.667,181.000 60.517,181.000 60.333 C 181.000 60.150,180.625 60.000,180.167 60.000 C 179.708 60.000,179.333 59.850,179.333 59.667 C 179.333 59.483,178.896 59.333,178.361 59.333 C 177.826 59.333,177.301 59.146,177.194 58.917 C 177.039 58.583,176.961 58.583,176.806 58.917 C 176.597 59.363,175.974 59.499,176.039 59.083 C 176.183 58.172,175.938 57.933,175.000 58.071 C 174.318 58.171,174.000 58.077,174.000 57.776 C 174.000 57.506,173.609 57.333,173.000 57.333 C 172.450 57.333,172.000 57.220,172.000 57.082 C 172.000 56.629,169.532 56.012,169.290 56.404 C 169.151 56.628,168.783 56.491,168.288 56.029 C 167.784 55.559,167.173 55.335,166.572 55.398 C 166.051 55.453,165.516 55.296,165.360 55.042 C 165.174 54.742,164.625 54.632,163.732 54.718 C 162.934 54.794,162.408 54.708,162.442 54.506 C 162.474 54.320,161.937 54.167,161.250 54.167 C 160.562 54.167,160.000 54.045,160.000 53.897 C 160.000 53.749,159.860 53.714,159.690 53.819 C 159.519 53.925,159.300 53.882,159.203 53.725 C 159.106 53.568,158.308 53.409,157.430 53.373 C 155.174 53.279,155.000 53.251,155.000 52.982 C 155.000 52.850,153.387 52.647,151.417 52.530 C 141.788 51.959,130.667 52.589,130.667 53.706 C 130.667 53.867,130.433 54.000,130.147 54.000 C 129.861 54.000,129.720 53.850,129.833 53.667 C 129.947 53.483,129.814 53.333,129.539 53.333 C 129.264 53.333,128.965 53.453,128.874 53.600 C 128.784 53.747,128.106 53.903,127.368 53.946 C 125.939 54.031,124.200 54.755,124.561 55.116 C 124.680 55.236,124.615 55.333,124.417 55.333 C 124.218 55.333,123.987 55.146,123.903 54.917 C 123.781 54.583,123.662 54.583,123.308 54.917 C 123.065 55.146,122.475 55.333,121.996 55.333 C 121.517 55.333,120.782 55.654,120.361 56.046 C 119.836 56.535,119.522 56.639,119.361 56.379 C 119.199 56.116,118.907 56.204,118.415 56.663 C 118.018 57.032,117.473 57.238,117.184 57.127 C 116.849 56.999,116.667 57.117,116.667 57.464 C 116.667 58.076,116.120 58.192,115.929 57.621 C 115.816 57.280,114.608 57.726,114.000 58.333 C 113.392 58.942,112.192 58.709,112.751 58.091 C 113.072 57.736,113.222 57.322,113.084 57.170 C 112.946 57.017,113.001 56.989,113.206 57.106 C 113.411 57.222,114.164 56.684,114.881 55.909 C 115.598 55.134,116.763 54.015,117.471 53.423 C 118.621 52.461,118.710 52.283,118.296 51.756 C 117.867 51.210,117.880 51.203,118.471 51.667 C 118.958 52.048,119.142 52.068,119.249 51.750 C 119.326 51.521,119.570 51.333,119.791 51.333 C 120.012 51.333,120.856 50.733,121.667 50.000 C 122.477 49.267,123.333 48.667,123.570 48.667 C 123.806 48.667,124.000 48.549,124.000 48.405 C 124.000 48.261,124.450 47.878,125.000 47.553 C 125.550 47.228,126.012 46.708,126.026 46.398 C 126.041 46.079,126.123 46.007,126.215 46.233 C 126.404 46.699,127.533 46.298,129.166 45.185 C 129.715 44.810,130.324 44.541,130.519 44.586 C 130.714 44.630,131.196 44.367,131.590 44.000 C 131.983 43.633,132.537 43.333,132.819 43.333 C 133.102 43.333,133.333 43.183,133.333 43.000 C 133.333 42.817,133.565 42.667,133.847 42.667 C 134.130 42.667,134.683 42.366,135.077 42.000 C 135.621 41.493,135.858 41.433,136.063 41.750 C 136.276 42.077,136.390 42.079,136.598 41.758 C 136.743 41.534,137.189 41.300,137.589 41.239 C 137.989 41.178,138.420 41.024,138.547 40.897 C 138.674 40.771,139.053 40.667,139.389 40.667 C 139.725 40.667,140.000 40.517,140.000 40.333 C 140.000 40.150,140.450 40.000,141.000 40.000 C 141.609 40.000,142.000 39.827,142.000 39.558 C 142.000 39.256,142.318 39.162,143.000 39.262 C 143.600 39.350,144.000 39.261,144.000 39.038 C 144.000 38.834,144.385 38.667,144.855 38.667 C 145.326 38.667,146.038 38.488,146.439 38.269 C 146.839 38.050,147.564 37.910,148.050 37.957 C 148.536 38.005,149.033 37.884,149.153 37.688 C 149.274 37.493,149.964 37.333,150.686 37.333 C 151.409 37.333,152.000 37.208,152.000 37.056 C 152.000 36.744,152.644 36.630,154.269 36.653 C 154.876 36.662,155.657 36.517,156.005 36.331 C 156.352 36.145,157.691 35.947,158.978 35.892 C 160.266 35.837,161.422 35.689,161.549 35.563 C 161.903 35.208,176.000 35.286,176.000 35.642 M145.500 64.547 C 173.124 67.944,207.882 87.495,234.333 114.514 C 238.300 118.566,238.243 118.578,233.118 114.772 C 172.956 70.095,118.414 75.123,118.196 125.367 L 118.171 131.234 112.002 131.449 C 108.609 131.568,100.300 131.665,93.537 131.666 L 81.240 131.667 81.430 123.750 C 82.483 79.823,104.475 59.502,145.500 64.547 M194.000 68.333 C 193.348 68.755,192.667 68.755,192.667 68.333 C 192.667 68.150,193.079 68.002,193.583 68.005 C 194.298 68.009,194.390 68.082,194.000 68.333 M265.487 76.894 C 265.202 77.179,264.885 77.330,264.784 77.228 C 264.531 76.975,265.438 76.033,265.753 76.223 C 265.891 76.307,265.772 76.609,265.487 76.894 M218.127 84.517 C 218.252 84.843,218.190 84.950,217.959 84.808 C 217.757 84.683,217.467 84.784,217.314 85.031 C 217.161 85.278,216.938 85.382,216.818 85.262 C 216.597 85.041,217.318 84.036,217.714 84.013 C 217.832 84.006,218.018 84.233,218.127 84.517 M258.812 124.298 C 258.913 124.463,258.772 124.683,258.498 124.788 C 258.196 124.904,258.000 124.787,258.000 124.490 C 258.000 123.950,258.521 123.828,258.812 124.298 M349.903 143.963 L 356.638 144.167 328.980 175.000 C 299.802 207.527,299.991 207.294,300.015 210.689 C 300.036 213.792,299.458 212.668,317.052 243.833 C 325.953 259.600,333.425 272.860,333.656 273.300 L 334.077 274.100 308.355 273.924 C 283.715 273.755,282.614 273.722,282.175 273.124 C 281.033 271.566,275.654 262.929,267.543 249.625 C 262.694 241.673,257.712 233.604,256.473 231.694 C 253.199 226.651,251.678 222.425,250.891 216.184 L 250.500 213.086 244.982 243.126 L 239.464 273.167 218.399 273.252 C 201.651 273.321,197.336 273.252,197.346 272.919 C 197.354 272.689,202.499 243.700,208.781 208.500 L 220.203 144.500 225.685 144.296 C 234.951 143.951,262.667 143.968,262.667 144.318 C 262.667 144.493,260.567 157.009,258.000 172.131 C 252.812 202.697,253.035 201.156,254.157 198.746 C 256.879 192.898,257.620 192.063,283.040 166.197 L 305.167 143.681 324.167 143.720 C 334.617 143.741,346.198 143.850,349.903 143.963 M177.735 145.394 C 193.852 149.846,200.853 160.039,200.817 179.000 C 200.770 203.382,188.181 221.632,165.167 230.680 C 164.067 231.113,163.035 231.575,162.875 231.708 C 162.246 232.229,172.943 246.885,180.604 256.000 C 212.712 294.201,246.954 312.008,275.723 305.465 C 278.519 304.828,278.671 304.924,277.461 306.561 C 255.412 336.402,207.283 329.127,165.475 289.635 C 150.778 275.752,129.098 248.405,123.406 236.570 L 121.833 233.299 119.868 233.483 C 118.787 233.584,112.703 233.667,106.347 233.667 L 94.792 233.667 90.146 253.621 L 85.500 273.576 82.333 273.786 C 77.853 274.084,46.001 274.052,45.997 273.750 C 45.992 273.351,63.448 199.851,63.592 199.667 C 63.664 199.575,84.447 199.425,109.778 199.333 L 155.833 199.167 158.060 198.112 C 167.605 193.590,169.364 182.371,161.202 178.065 L 159.500 177.167 148.500 177.075 C 142.450 177.024,122.246 176.870,103.602 176.732 C 84.958 176.594,69.609 176.386,69.492 176.270 C 69.376 176.154,70.905 169.000,72.890 160.373 L 76.500 144.687 81.333 144.580 C 83.992 144.522,106.042 144.480,130.333 144.487 L 174.500 144.500 177.735 145.394 M146.582 285.583 C 146.451 285.845,147.862 287.333,148.215 287.306 C 148.326 287.298,148.586 287.624,148.792 288.030 C 148.998 288.436,149.392 288.871,149.667 288.998 C 151.088 289.652,151.473 289.922,151.602 290.357 C 151.680 290.619,151.506 290.533,151.216 290.167 C 150.925 289.800,150.683 289.644,150.677 289.820 C 150.667 290.123,153.852 293.333,154.163 293.333 C 154.244 293.333,155.478 294.471,156.905 295.861 C 158.332 297.251,159.912 298.541,160.417 298.727 C 160.921 298.913,161.333 299.239,161.333 299.452 C 161.333 299.805,162.697 300.873,162.934 300.705 C 162.990 300.666,163.500 301.129,164.069 301.734 C 164.715 302.420,165.156 302.678,165.245 302.420 C 165.352 302.109,165.512 302.131,165.887 302.506 C 166.162 302.781,166.540 302.912,166.727 302.796 C 166.928 302.672,166.912 302.874,166.688 303.293 C 166.392 303.847,166.405 304.000,166.748 304.000 C 166.989 304.000,167.402 304.300,167.667 304.667 C 167.931 305.033,168.310 305.333,168.508 305.333 C 168.707 305.333,169.441 305.857,170.139 306.496 C 170.838 307.136,171.565 307.563,171.756 307.445 C 171.957 307.320,172.003 307.392,171.865 307.615 C 171.726 307.840,171.832 308.000,172.119 308.000 C 172.390 308.000,172.661 308.139,172.722 308.308 C 172.783 308.478,173.048 308.665,173.310 308.725 C 173.572 308.785,174.232 309.246,174.776 309.750 C 175.320 310.254,175.968 310.667,176.216 310.667 C 176.464 310.667,176.667 310.791,176.667 310.944 C 176.667 311.096,177.079 311.434,177.583 311.694 C 178.088 311.954,178.791 312.429,179.146 312.750 C 179.502 313.071,179.989 313.333,180.230 313.333 C 180.470 313.333,180.667 313.469,180.667 313.634 C 180.667 313.799,181.079 314.097,181.583 314.296 C 182.667 314.723,183.747 315.381,184.050 315.799 C 184.169 315.963,184.504 316.006,184.796 315.894 C 185.095 315.779,185.291 315.849,185.246 316.056 C 185.202 316.256,186.517 317.113,188.167 317.959 C 189.817 318.805,191.242 319.572,191.333 319.665 C 191.996 320.334,193.108 320.697,193.342 320.320 C 193.521 320.030,193.651 320.093,193.793 320.540 C 194.026 321.273,195.800 322.148,196.505 321.877 C 196.780 321.772,196.957 321.864,196.913 322.087 C 196.869 322.306,197.206 322.540,197.662 322.609 C 198.118 322.678,198.891 323.019,199.380 323.367 C 199.869 323.715,200.430 324.000,200.626 324.000 C 200.822 324.000,201.624 324.290,202.408 324.644 C 204.998 325.814,207.993 326.711,208.423 326.444 C 208.566 326.356,208.642 326.482,208.592 326.725 C 208.535 326.997,208.885 327.209,209.500 327.276 C 210.050 327.336,210.642 327.523,210.817 327.692 C 210.991 327.862,211.544 328.000,212.047 328.000 C 212.550 328.000,213.053 328.150,213.167 328.333 C 213.280 328.517,213.805 328.667,214.333 328.667 C 214.862 328.667,215.395 328.831,215.519 329.031 C 215.643 329.232,216.315 329.342,217.011 329.275 C 217.707 329.209,218.216 329.254,218.141 329.376 C 217.948 329.688,218.883 330.000,220.012 330.000 C 220.538 330.000,221.362 330.179,221.842 330.398 C 222.529 330.711,222.861 330.705,223.393 330.373 C 223.765 330.141,223.982 330.093,223.874 330.268 C 223.189 331.376,246.668 331.413,247.817 330.305 C 247.991 330.137,248.703 330.000,249.400 330.000 C 250.097 330.000,250.667 329.850,250.667 329.667 C 250.667 329.483,251.267 329.333,252.000 329.333 C 252.794 329.333,253.333 329.176,253.333 328.944 C 253.333 328.731,253.427 328.650,253.542 328.765 C 253.657 328.880,254.276 328.755,254.916 328.487 C 255.557 328.219,256.363 328.000,256.707 328.000 C 257.052 328.000,257.333 327.850,257.333 327.667 C 257.333 327.483,257.635 327.333,258.005 327.333 C 258.374 327.333,258.936 327.193,259.255 327.022 C 259.573 326.851,260.321 326.514,260.917 326.274 C 261.512 326.034,262.000 325.724,262.000 325.585 C 262.000 325.447,262.300 325.333,262.667 325.333 C 263.033 325.333,263.335 325.221,263.336 325.083 C 263.339 324.784,264.953 324.000,265.566 324.000 C 265.805 324.000,266.000 323.878,266.000 323.729 C 266.000 323.580,266.518 323.254,267.152 323.006 C 267.785 322.757,268.226 322.429,268.132 322.277 C 268.038 322.125,268.270 322.000,268.647 322.000 C 269.024 322.000,269.333 321.867,269.333 321.706 C 269.333 321.544,269.634 321.332,270.001 321.236 C 270.473 321.113,270.611 320.881,270.470 320.448 C 270.312 319.961,270.341 319.933,270.610 320.312 C 270.890 320.707,271.124 320.604,271.942 319.729 C 272.488 319.145,273.141 318.667,273.393 318.667 C 273.646 318.667,274.069 318.367,274.333 318.000 C 274.598 317.633,274.976 317.333,275.175 317.333 C 275.743 317.333,277.708 315.155,277.423 314.841 C 277.282 314.686,277.349 314.665,277.573 314.793 C 278.046 315.065,282.667 310.543,282.667 309.808 C 282.667 309.547,282.892 309.333,283.167 309.333 C 283.442 309.333,283.667 309.215,283.667 309.069 C 283.667 308.924,284.180 308.261,284.807 307.596 C 286.215 306.104,286.770 305.103,286.464 304.608 C 286.320 304.376,286.379 304.322,286.618 304.470 C 287.031 304.725,287.914 304.021,288.071 303.309 C 288.124 303.073,288.579 302.434,289.083 301.890 C 289.587 301.346,290.000 300.767,290.000 300.603 C 290.000 300.439,290.300 299.983,290.667 299.590 C 291.033 299.196,291.333 298.678,291.333 298.437 C 291.333 298.197,291.483 298.000,291.667 298.000 C 291.850 298.000,292.000 297.723,292.000 297.385 C 292.000 297.047,292.300 296.498,292.667 296.167 C 293.033 295.835,293.333 295.317,293.333 295.015 C 293.333 294.713,293.473 294.324,293.644 294.150 C 294.255 293.528,296.000 289.920,296.000 289.280 C 296.000 288.875,296.145 288.717,296.382 288.863 C 296.645 289.026,296.711 288.826,296.595 288.216 C 296.483 287.634,296.571 287.333,296.852 287.333 C 297.086 287.333,297.329 287.180,297.391 286.993 C 297.550 286.516,322.448 286.509,322.606 286.986 C 322.680 287.208,324.688 287.333,328.175 287.333 C 331.450 287.333,333.710 287.466,333.833 287.667 C 333.947 287.850,333.880 288.000,333.686 288.000 C 333.492 288.000,333.333 288.300,333.333 288.667 C 333.333 289.033,333.483 289.333,333.667 289.333 C 333.850 289.333,334.000 289.483,334.000 289.667 C 334.000 289.850,333.700 290.000,333.333 290.000 C 332.815 290.000,332.667 290.222,332.667 291.000 C 332.667 291.550,332.517 292.000,332.333 292.000 C 332.150 292.000,332.000 292.291,332.000 292.647 C 332.000 293.003,331.850 293.387,331.667 293.500 C 331.483 293.613,331.333 294.072,331.333 294.520 C 331.333 294.967,331.183 295.333,331.000 295.333 C 330.817 295.333,330.667 295.783,330.667 296.333 C 330.667 296.883,330.517 297.333,330.333 297.333 C 330.150 297.333,330.000 297.633,330.000 298.000 C 330.000 298.367,329.850 298.667,329.667 298.667 C 329.483 298.667,329.333 298.869,329.333 299.115 C 329.333 299.362,328.436 301.350,327.339 303.532 C 326.241 305.714,325.341 307.762,325.339 308.083 C 325.336 308.404,325.174 308.667,324.980 308.667 C 324.786 308.667,324.720 308.817,324.833 309.000 C 324.947 309.183,324.805 309.333,324.520 309.333 C 324.061 309.333,323.979 309.468,324.007 310.173 C 324.011 310.268,323.711 310.672,323.340 311.069 C 322.970 311.467,322.667 311.989,322.667 312.230 C 322.667 312.470,322.517 312.667,322.333 312.667 C 322.150 312.667,322.000 312.967,322.000 313.333 C 322.000 313.700,321.850 314.000,321.667 314.000 C 321.483 314.000,321.333 314.234,321.333 314.520 C 321.333 314.805,321.199 314.956,321.035 314.855 C 320.782 314.699,320.293 315.380,320.195 316.024 C 320.180 316.129,319.914 316.467,319.605 316.776 C 319.296 317.085,318.949 317.636,318.833 318.002 C 318.717 318.368,318.466 318.667,318.275 318.667 C 318.085 318.667,318.012 318.884,318.114 319.150 C 318.238 319.473,318.139 319.571,317.815 319.447 C 317.477 319.317,317.269 319.573,317.124 320.297 C 317.010 320.867,316.775 321.333,316.601 321.333 C 316.179 321.333,315.333 322.199,315.333 322.631 C 315.333 322.821,315.065 323.120,314.737 323.296 C 314.409 323.471,313.937 323.994,313.689 324.458 C 313.441 324.922,313.072 325.271,312.869 325.234 C 312.666 325.197,312.541 325.365,312.592 325.608 C 312.642 325.851,312.530 325.955,312.343 325.839 C 312.156 325.724,311.836 325.996,311.631 326.444 C 311.427 326.893,310.893 327.427,310.444 327.631 C 309.960 327.852,309.725 328.159,309.866 328.386 C 310.004 328.610,309.957 328.679,309.753 328.554 C 309.561 328.435,308.986 328.862,308.475 329.502 C 307.965 330.143,307.349 330.667,307.107 330.667 C 306.865 330.667,306.667 330.967,306.667 331.333 C 306.667 331.715,306.444 332.000,306.147 332.000 C 305.839 332.000,305.724 332.157,305.865 332.385 C 306.006 332.613,305.957 332.680,305.745 332.548 C 305.548 332.427,305.150 332.564,304.860 332.854 C 304.570 333.144,304.333 333.285,304.333 333.167 C 304.333 333.049,304.125 333.151,303.870 333.393 C 303.616 333.635,303.025 334.109,302.559 334.447 C 302.076 334.796,301.788 335.263,301.891 335.530 C 301.990 335.789,301.905 336.000,301.702 336.000 C 301.499 336.000,301.333 335.850,301.333 335.667 C 301.333 335.077,300.718 335.312,300.505 335.983 C 300.381 336.376,300.108 336.559,299.816 336.447 C 299.518 336.333,299.333 336.467,299.333 336.798 C 299.333 337.110,299.057 337.333,298.669 337.333 C 298.304 337.333,297.818 337.633,297.589 338.000 C 297.360 338.367,296.913 338.667,296.595 338.667 C 296.278 338.667,295.376 339.048,294.592 339.515 C 293.808 339.981,292.904 340.449,292.583 340.554 C 292.262 340.659,292.000 340.877,292.000 341.039 C 292.000 341.201,291.782 341.333,291.516 341.333 C 290.736 341.333,289.338 342.072,289.530 342.382 C 289.627 342.539,289.172 342.667,288.520 342.667 C 287.867 342.667,287.333 342.817,287.333 343.000 C 287.333 343.183,287.033 343.333,286.667 343.333 C 286.300 343.333,286.000 343.483,286.000 343.667 C 286.000 343.850,285.550 344.000,285.000 344.000 C 284.450 344.000,284.000 344.150,284.000 344.333 C 284.000 344.517,283.568 344.667,283.041 344.667 C 282.513 344.667,281.908 344.876,281.695 345.132 C 281.483 345.388,281.014 345.521,280.654 345.427 C 280.293 345.332,280.000 345.422,280.000 345.628 C 280.000 345.833,279.484 346.000,278.853 346.000 C 278.222 346.000,277.624 346.133,277.523 346.297 C 277.341 346.591,276.133 346.861,273.417 347.216 C 272.312 347.360,272.000 347.540,272.000 348.034 C 272.000 348.382,271.850 348.667,271.667 348.667 C 271.483 348.667,271.333 348.517,271.333 348.333 C 271.333 348.150,270.883 348.000,270.333 348.000 C 269.758 348.000,269.331 348.177,269.328 348.417 C 269.325 348.707,269.231 348.688,269.021 348.356 C 268.771 347.961,268.492 347.947,267.404 348.273 C 266.681 348.489,265.019 348.667,263.711 348.667 C 262.403 348.667,261.333 348.803,261.333 348.970 C 261.333 349.405,250.776 349.447,250.508 349.013 C 250.390 348.822,249.203 348.667,247.869 348.667 C 246.536 348.667,245.341 348.563,245.215 348.437 C 245.088 348.310,244.444 348.163,243.782 348.108 C 243.121 348.054,242.405 347.864,242.191 347.687 C 241.977 347.510,241.510 347.368,241.151 347.373 C 240.274 347.384,239.403 347.181,239.121 346.899 C 238.723 346.501,237.682 346.645,237.789 347.083 C 237.845 347.313,237.827 347.384,237.749 347.243 C 237.486 346.768,235.707 346.000,234.870 346.000 C 234.413 346.000,233.947 345.850,233.833 345.667 C 233.720 345.483,233.111 345.333,232.480 345.333 C 231.849 345.333,231.333 345.183,231.333 345.000 C 231.333 344.817,230.892 344.667,230.353 344.667 C 229.814 344.667,229.271 344.502,229.147 344.301 C 229.023 344.100,228.495 343.999,227.973 344.075 C 227.405 344.158,226.961 344.046,226.864 343.793 C 226.692 343.345,225.333 343.295,225.333 343.738 C 225.333 343.882,225.183 344.000,225.000 344.000 C 224.817 344.000,224.667 343.700,224.667 343.333 C 224.667 342.819,224.444 342.667,223.694 342.667 C 223.160 342.667,222.659 342.479,222.582 342.250 C 222.475 341.932,222.295 341.952,221.824 342.333 C 221.467 342.621,221.311 342.657,221.456 342.417 C 221.613 342.154,221.513 342.000,221.186 342.000 C 220.901 342.000,220.667 341.850,220.667 341.667 C 220.667 341.483,220.217 341.333,219.667 341.333 C 219.117 341.333,218.667 341.183,218.667 341.000 C 218.667 340.817,218.470 340.667,218.229 340.667 C 217.989 340.667,217.159 340.361,216.385 339.987 C 215.611 339.613,214.850 339.387,214.694 339.483 C 214.537 339.580,214.224 339.436,213.997 339.163 C 213.770 338.890,213.228 338.667,212.793 338.667 C 212.357 338.667,212.000 338.517,212.000 338.333 C 212.000 338.150,211.792 338.000,211.538 338.000 C 211.284 338.000,210.657 337.783,210.145 337.517 C 209.633 337.251,209.091 337.110,208.941 337.203 C 208.790 337.297,208.667 337.232,208.667 337.060 C 208.667 336.614,206.772 335.888,206.190 336.112 C 205.861 336.238,205.761 336.141,205.886 335.816 C 206.012 335.489,205.845 335.333,205.369 335.333 C 204.983 335.333,204.667 335.183,204.667 335.000 C 204.667 334.817,204.376 334.667,204.020 334.667 C 203.664 334.667,203.280 334.517,203.167 334.333 C 203.053 334.150,202.670 334.000,202.314 334.000 C 201.958 334.000,201.667 333.878,201.667 333.729 C 201.667 333.580,201.142 333.252,200.500 333.000 C 199.858 332.748,199.333 332.404,199.333 332.235 C 199.333 332.067,199.112 332.013,198.842 332.117 C 198.572 332.221,198.234 332.109,198.092 331.868 C 197.673 331.159,196.222 330.501,196.071 330.952 C 195.868 331.561,195.333 331.392,195.333 330.719 C 195.333 330.320,194.777 329.825,193.750 329.307 C 192.879 328.868,192.092 328.432,192.000 328.338 C 191.682 328.011,189.830 326.958,189.250 326.774 C 188.929 326.672,188.667 326.456,188.667 326.294 C 188.667 326.133,188.368 326.000,188.003 326.000 C 187.638 326.000,187.152 325.700,186.923 325.333 C 186.694 324.967,186.355 324.666,186.170 324.666 C 185.985 324.665,185.318 324.225,184.688 323.686 C 184.058 323.148,183.458 322.716,183.355 322.727 C 182.596 322.803,182.013 322.608,182.083 322.302 C 182.129 322.102,181.867 321.764,181.500 321.552 C 181.133 321.340,180.742 321.041,180.629 320.888 C 180.517 320.735,180.330 320.623,180.213 320.638 C 179.547 320.727,179.317 320.629,179.500 320.333 C 179.613 320.150,179.472 320.000,179.186 320.000 C 178.901 320.000,178.667 319.882,178.667 319.739 C 178.667 319.595,178.244 319.227,177.727 318.922 C 177.211 318.617,176.123 317.760,175.311 317.017 C 174.498 316.274,173.740 315.667,173.625 315.667 C 173.511 315.667,172.844 315.142,172.143 314.500 C 170.789 313.259,170.489 313.131,170.219 313.675 C 170.126 313.863,170.093 313.825,170.147 313.592 C 170.278 313.012,169.726 312.000,169.278 312.000 C 169.077 312.000,168.220 311.304,167.373 310.453 C 166.526 309.602,165.383 308.708,164.833 308.466 C 164.283 308.224,164.053 308.020,164.321 308.013 C 164.602 308.006,164.112 307.293,163.161 306.327 C 162.254 305.407,161.330 304.724,161.107 304.810 C 160.861 304.905,160.774 304.775,160.886 304.483 C 161.002 304.180,160.864 304.000,160.516 304.000 C 160.211 304.000,160.047 303.860,160.152 303.690 C 160.258 303.519,160.201 303.291,160.026 303.183 C 159.851 303.074,159.541 303.252,159.338 303.576 C 159.012 304.097,158.992 304.081,159.166 303.438 C 159.369 302.695,158.994 302.200,155.408 298.479 C 154.624 297.666,154.090 297.000,154.221 297.000 C 154.352 297.000,154.168 296.726,153.813 296.392 C 153.457 296.057,152.869 295.382,152.504 294.892 C 152.140 294.401,151.646 294.000,151.406 294.000 C 151.167 294.000,151.015 293.791,151.069 293.536 C 151.183 292.997,148.833 290.336,148.237 290.328 C 147.986 290.325,148.022 290.201,148.333 290.000 C 148.667 289.785,148.694 289.675,148.417 289.672 C 148.188 289.669,148.000 289.442,148.000 289.167 C 148.000 288.892,147.780 288.667,147.510 288.667 C 147.241 288.667,147.095 288.474,147.185 288.238 C 147.276 288.003,147.033 287.470,146.646 287.054 C 146.031 286.394,145.947 285.333,146.509 285.333 C 146.617 285.333,146.650 285.446,146.582 285.583 M313.333 328.190 C 313.333 328.295,313.101 328.613,312.817 328.897 C 312.167 329.548,311.776 329.222,312.383 328.535 C 312.838 328.020,313.333 327.840,313.333 328.190 M197.333 332.314 C 197.333 332.872,196.742 333.011,196.545 332.498 C 196.429 332.196,196.546 332.000,196.844 332.000 C 197.113 332.000,197.333 332.141,197.333 332.314 M240.500 348.333 C 240.387 348.517,240.078 348.667,239.814 348.667 C 239.549 348.667,239.333 348.517,239.333 348.333 C 239.333 348.150,239.642 348.000,240.020 348.000 C 240.397 348.000,240.613 348.150,240.500 348.333 " stroke="none" fill="#040404" fill-rule="evenodd"></path></g></svg>