<svg id="svg" version="1.1" xmlns="http://www.w3.org/2000/svg" xmlns:xlink="http://www.w3.org/1999/xlink" width="400" height="320" viewBox="0, 0, 400,320"><g id="svgg"><path id="path0" d="M67.680 14.404 C 45.245 16.273,32.376 30.427,31.144 54.589 C 30.807 61.195,34.114 68.232,40.316 74.106 C 41.383 75.117,42.313 76.409,42.912 77.717 C 43.800 79.653,44.800 80.110,44.800 78.578 C 44.800 78.368,45.304 77.606,45.920 76.887 C 46.536 76.167,47.040 75.529,47.041 75.469 C 47.041 75.409,46.105 75.408,44.961 75.467 L 42.881 75.575 40.825 73.600 C 34.224 67.262,31.361 60.669,31.981 53.234 C 34.167 26.986,47.681 15.044,75.200 15.044 C 117.043 15.043,136.453 25.886,151.580 57.713 C 158.488 72.247,159.582 73.962,163.166 75.873 C 164.935 76.816,164.943 76.827,163.770 76.676 C 160.236 76.222,157.391 73.724,154.078 68.167 C 147.102 56.465,130.354 39.323,119.520 32.796 C 107.000 25.254,86.540 21.898,75.048 25.501 C 58.717 30.622,49.783 46.111,56.370 57.883 C 57.170 59.313,57.316 59.893,57.227 61.285 L 57.120 62.964 57.957 62.259 C 58.418 61.870,59.246 61.366,59.797 61.138 C 61.109 60.594,61.063 60.376,59.488 59.666 C 54.592 57.458,53.462 46.886,57.380 39.944 C 68.586 20.094,102.726 19.591,127.040 38.918 C 135.371 45.541,148.751 60.640,153.920 69.253 C 156.599 73.718,157.847 74.981,161.076 76.499 L 163.680 77.724 162.378 77.742 C 158.710 77.793,156.207 76.313,152.304 71.784 C 131.883 48.090,114.479 37.546,98.251 39.039 C 87.114 40.064,81.915 43.602,81.316 50.562 C 81.135 52.671,80.953 53.213,79.963 54.591 L 78.820 56.183 81.647 56.183 C 83.372 56.183,84.285 56.077,83.988 55.910 C 80.847 54.152,81.474 47.332,85.076 44.078 C 90.221 39.429,102.499 38.281,112.640 41.500 C 123.504 44.949,137.812 56.043,150.619 70.948 C 155.617 76.766,157.436 77.999,161.493 78.325 C 164.123 78.536,163.775 79.040,160.999 79.040 C 155.447 79.040,153.623 77.753,142.308 65.852 C 132.214 55.236,126.635 51.684,118.775 50.869 C 111.454 50.110,104.417 52.013,102.210 55.348 C 101.753 56.039,100.605 57.137,99.659 57.789 C 98.003 58.929,97.708 59.520,98.793 59.520 C 99.076 59.520,100.092 59.962,101.049 60.503 L 102.791 61.485 102.560 58.875 L 102.328 56.264 103.404 55.144 C 105.841 52.605,109.495 51.529,115.680 51.529 C 126.173 51.529,130.320 54.199,147.040 71.719 C 154.451 79.485,159.391 81.430,165.413 78.955 C 167.862 77.949,167.384 78.536,164.455 80.131 C 156.012 84.731,150.785 83.347,141.600 74.079 C 134.308 66.721,131.340 64.514,127.364 63.496 C 124.494 62.761,119.660 63.449,118.080 64.818 C 117.816 65.047,116.535 65.529,115.234 65.889 C 112.138 66.747,112.159 66.656,114.560 68.828 C 117.123 71.147,116.856 71.206,117.542 68.159 C 118.178 65.328,118.367 65.138,121.359 64.329 C 127.298 62.721,131.464 64.908,141.391 74.841 C 147.336 80.790,148.742 81.816,152.171 82.709 C 156.560 83.853,162.594 82.584,166.769 79.639 C 167.237 79.310,167.705 79.040,167.809 79.040 C 167.914 79.040,168.000 106.995,168.000 141.163 C 168.000 209.477,167.859 204.992,170.074 207.206 C 172.270 209.403,169.238 209.280,221.077 209.280 L 268.160 209.280 268.160 264.640 C 268.160 319.787,268.162 320.000,268.800 320.000 C 269.438 320.000,269.440 319.787,269.440 264.786 L 269.440 209.572 271.760 209.666 L 274.080 209.760 274.161 264.880 L 274.242 320.000 276.001 320.000 L 277.760 320.000 277.760 264.640 L 277.760 209.280 324.240 209.278 C 373.866 209.276,372.314 209.328,374.268 207.613 C 376.896 205.305,376.655 213.056,376.562 133.981 L 376.480 63.785 375.564 62.463 C 374.991 61.637,374.037 60.837,373.021 60.331 L 371.394 59.520 272.657 59.522 C 165.237 59.524,172.337 59.384,170.099 61.539 C 168.235 63.334,168.004 64.378,168.002 71.002 L 168.000 76.564 166.888 76.383 C 161.957 75.583,160.052 73.473,155.130 63.360 C 149.245 51.270,147.922 48.755,145.451 44.960 C 135.510 29.694,122.829 20.773,105.920 17.151 C 96.175 15.063,76.622 13.658,67.680 14.404 M73.514 60.527 C 68.024 61.647,65.477 62.721,65.264 64.006 C 65.162 64.619,64.909 65.433,64.702 65.815 C 64.353 66.457,64.520 66.424,66.908 65.390 C 69.862 64.109,75.022 62.720,76.822 62.720 C 78.442 62.720,78.524 62.456,77.327 61.097 L 76.320 59.955 73.514 60.527 M85.483 61.467 L 84.406 62.720 85.529 62.720 C 86.541 62.720,93.102 64.246,94.478 64.801 C 94.997 65.011,95.002 64.948,94.558 63.884 C 94.295 63.255,94.080 62.472,94.080 62.144 C 94.080 61.638,93.530 61.440,90.480 60.848 C 86.196 60.017,86.793 59.943,85.483 61.467 M371.726 62.923 C 373.927 63.968,373.760 58.083,373.760 134.549 L 373.760 203.849 372.665 205.045 L 371.569 206.240 272.745 206.320 C 174.072 206.399,173.918 206.398,172.861 205.753 C 170.732 204.453,170.880 209.811,170.880 134.234 C 170.880 58.363,170.710 64.359,172.896 63.027 C 174.364 62.132,369.842 62.029,371.726 62.923 M103.569 65.426 C 103.483 65.653,102.739 66.164,101.916 66.562 C 100.310 67.340,100.313 67.352,102.400 68.459 C 103.016 68.785,104.646 69.860,106.022 70.848 C 108.047 72.301,108.476 72.506,108.272 71.922 C 108.133 71.525,108.015 70.366,108.010 69.347 L 108.000 67.494 105.864 66.254 C 104.339 65.370,103.682 65.133,103.569 65.426 M56.480 68.166 C 56.304 68.339,54.891 69.719,53.340 71.233 C 50.768 73.745,50.563 74.033,51.006 74.523 C 51.273 74.818,51.686 75.522,51.924 76.087 L 52.356 77.115 54.192 74.910 C 55.202 73.697,57.123 71.791,58.459 70.673 L 60.889 68.640 59.485 68.434 C 58.712 68.320,57.792 68.143,57.440 68.040 C 57.088 67.936,56.656 67.993,56.480 68.166 M76.160 68.639 C 75.192 68.889,73.752 69.104,72.960 69.117 C 72.168 69.130,70.800 69.409,69.920 69.737 C 61.698 72.799,60.985 73.181,59.282 75.438 C 58.797 76.081,57.505 77.556,56.411 78.717 C 55.317 79.878,54.109 81.542,53.727 82.414 C 53.344 83.286,52.638 84.504,52.158 85.120 C 48.830 89.390,47.373 96.486,48.479 103.032 C 48.910 105.582,52.587 109.064,56.019 110.172 C 56.294 110.261,56.687 110.895,56.893 111.581 C 58.053 115.453,60.926 116.960,67.149 116.960 L 71.738 116.960 71.528 118.080 C 70.874 121.576,70.897 121.872,71.846 122.110 C 73.125 122.431,74.266 121.637,75.163 119.802 C 76.940 116.166,79.487 112.044,80.935 110.458 L 82.490 108.756 83.885 109.150 C 89.860 110.836,99.840 106.653,99.840 102.463 C 99.840 101.298,101.215 100.251,103.071 100.002 C 106.008 99.608,110.594 96.571,111.770 94.239 C 112.036 93.711,112.549 93.012,112.909 92.686 C 113.677 91.991,114.061 90.548,113.744 89.548 C 113.524 88.856,113.511 88.859,113.055 89.730 C 112.536 90.720,111.255 90.696,110.480 89.681 C 110.129 89.222,110.080 89.264,110.080 90.019 C 110.080 91.215,109.196 91.146,107.465 89.815 C 106.083 88.754,105.887 88.211,106.401 86.880 C 106.611 86.336,106.521 86.362,105.797 87.054 C 105.070 87.749,104.943 88.146,104.920 89.787 C 104.892 91.816,103.573 92.882,103.140 91.226 C 103.052 90.890,102.633 90.527,102.210 90.421 C 101.149 90.155,101.246 89.461,102.466 88.593 L 103.492 87.862 102.706 87.643 C 102.274 87.522,101.179 87.409,100.274 87.392 C 98.494 87.357,97.972 86.859,98.561 85.758 C 99.001 84.935,99.913 84.711,101.859 84.946 C 103.113 85.097,103.385 85.062,102.967 84.801 C 101.346 83.789,100.023 80.819,100.671 79.649 C 101.171 78.747,101.247 77.556,100.820 77.293 C 100.656 77.191,100.332 77.493,100.100 77.964 C 99.106 79.990,96.647 79.074,95.865 76.386 C 95.675 75.735,95.187 74.972,94.781 74.689 L 94.041 74.176 94.261 76.123 C 94.513 78.345,94.259 78.625,92.318 78.261 C 90.471 77.914,91.343 74.775,93.600 73.644 C 93.952 73.468,94.056 73.314,93.831 73.302 C 93.606 73.290,92.567 73.712,91.522 74.239 C 89.723 75.147,89.605 75.167,89.306 74.608 C 88.019 72.203,91.275 71.134,95.840 72.462 C 96.192 72.564,95.832 72.336,95.040 71.955 C 93.972 71.441,93.099 71.280,91.659 71.331 C 89.485 71.408,87.923 70.873,88.073 70.103 C 88.373 68.553,95.614 70.070,97.920 72.165 C 98.360 72.565,99.224 72.987,99.840 73.102 L 100.960 73.311 99.680 72.656 C 98.976 72.295,97.752 71.596,96.960 71.102 C 96.168 70.608,94.889 69.954,94.118 69.648 C 91.164 68.476,79.364 67.813,76.160 68.639 M87.562 71.226 L 88.480 71.977 87.664 71.988 C 86.095 72.011,86.009 72.621,87.358 74.154 C 89.464 76.547,89.976 78.960,89.361 83.600 C 88.990 86.397,90.737 86.678,91.343 83.919 C 91.467 83.352,91.702 82.805,91.865 82.705 C 92.027 82.604,92.160 82.190,92.160 81.784 C 92.160 79.158,94.847 78.607,97.079 80.776 C 98.966 82.611,99.159 83.400,98.103 84.957 C 97.650 85.624,97.280 86.429,97.280 86.746 C 97.280 89.311,95.879 86.953,95.690 84.068 C 95.592 82.586,95.367 81.440,95.160 81.372 C 94.684 81.215,93.762 83.566,93.530 85.529 C 93.389 86.719,93.184 87.156,92.672 87.358 C 92.303 87.505,91.469 87.851,90.819 88.128 C 89.774 88.575,89.584 88.578,89.162 88.156 C 88.900 87.894,88.565 87.680,88.417 87.680 C 88.270 87.680,87.470 87.030,86.640 86.234 C 85.519 85.160,84.904 84.804,84.246 84.846 C 81.310 85.037,78.627 83.059,79.244 81.158 C 79.566 80.166,79.565 78.080,79.243 78.080 C 79.090 78.080,79.044 77.781,79.139 77.415 C 79.262 76.947,78.970 76.370,78.156 75.469 C 77.230 74.445,77.066 74.080,77.335 73.649 C 77.583 73.253,77.556 73.001,77.236 72.702 C 76.635 72.141,76.690 71.682,77.360 71.670 C 77.889 71.661,77.889 71.642,77.354 71.331 C 77.042 71.149,76.522 71.085,76.199 71.188 C 75.864 71.294,75.438 71.166,75.209 70.891 C 74.751 70.339,74.885 70.262,76.904 69.926 C 77.666 69.799,78.301 69.865,78.584 70.100 C 79.229 70.635,79.161 71.678,78.480 71.690 C 77.947 71.699,77.947 71.715,78.480 72.026 C 78.788 72.205,79.271 72.813,79.554 73.376 C 79.837 73.939,80.785 75.137,81.661 76.037 L 83.254 77.674 83.147 80.118 C 83.075 81.766,83.156 82.561,83.397 82.561 C 83.982 82.560,85.462 81.254,85.256 80.920 C 85.151 80.751,85.231 80.412,85.433 80.168 C 86.636 78.719,86.092 75.014,84.391 73.072 C 84.060 72.694,83.830 72.118,83.880 71.792 C 83.930 71.466,83.797 70.884,83.583 70.497 C 82.590 68.696,85.010 69.139,87.562 71.226 M72.498 71.823 C 72.781 72.254,73.041 72.809,73.078 73.056 C 73.114 73.303,73.557 73.995,74.062 74.593 C 77.014 78.085,77.603 86.559,74.766 84.699 C 74.137 84.288,73.982 83.837,73.802 81.904 C 73.684 80.637,73.487 79.438,73.363 79.240 C 73.239 79.042,73.101 78.736,73.055 78.560 C 73.010 78.384,72.738 77.382,72.451 76.332 C 72.057 74.887,72.017 74.286,72.288 73.852 C 72.563 73.411,72.549 73.280,72.224 73.280 C 71.216 73.280,70.618 72.474,71.079 71.737 C 71.635 70.846,71.868 70.860,72.498 71.823 M98.106 74.127 C 97.924 74.601,98.371 74.651,99.351 74.268 C 99.921 74.046,99.899 74.006,99.127 73.858 C 98.580 73.754,98.212 73.851,98.106 74.127 M103.004 74.830 C 103.403 75.389,103.862 75.765,104.024 75.665 C 104.438 75.409,104.436 75.406,103.300 74.566 L 102.279 73.811 103.004 74.830 M115.516 74.951 C 115.078 75.117,113.956 75.246,113.023 75.238 L 111.327 75.224 112.618 76.691 C 119.468 84.473,120.160 91.732,114.892 100.566 C 107.253 113.376,94.789 123.988,83.840 127.003 C 59.300 133.761,39.355 111.028,47.867 86.000 C 48.292 84.751,48.640 83.717,48.640 83.704 C 48.639 83.691,47.774 83.675,46.717 83.669 L 44.795 83.657 44.128 85.429 C 38.202 101.167,43.035 118.475,56.558 129.938 L 58.235 131.360 57.882 139.786 L 57.529 148.212 54.253 155.786 C 48.873 168.223,49.442 167.268,43.520 173.809 C 40.616 177.017,37.196 180.798,35.920 182.212 L 33.600 184.782 33.600 206.261 L 33.600 227.740 35.760 228.389 C 40.962 229.954,65.743 237.511,68.720 238.441 L 72.000 239.465 72.000 279.732 C 72.000 319.787,72.003 320.000,72.640 320.000 C 73.277 320.000,73.280 319.787,73.280 280.118 L 73.280 240.236 74.420 240.421 C 75.047 240.523,76.091 240.866,76.740 241.183 L 77.920 241.760 78.001 280.880 L 78.083 320.000 79.841 320.000 L 81.600 320.000 81.600 281.280 C 81.600 249.572,81.676 242.560,82.019 242.560 C 82.250 242.560,84.806 243.291,87.699 244.185 C 90.593 245.079,95.766 246.663,99.197 247.703 L 105.433 249.596 106.431 248.558 C 106.980 247.987,113.304 240.968,120.485 232.960 C 127.666 224.952,134.034 217.878,134.637 217.239 L 135.733 216.078 124.013 200.599 C 117.568 192.086,110.587 182.888,108.501 180.160 L 104.709 175.200 101.163 173.182 C 99.212 172.073,97.521 171.010,97.404 170.822 C 97.156 170.421,102.783 159.082,104.551 156.420 C 106.918 152.856,116.258 147.055,119.091 147.388 C 125.564 148.149,129.280 145.073,129.280 138.956 C 129.280 137.260,129.443 134.714,129.642 133.297 C 129.966 130.993,129.932 130.421,129.322 127.895 C 128.120 122.917,128.447 120.325,130.355 119.695 C 135.991 117.835,136.541 113.560,131.691 109.302 C 126.719 104.936,124.621 100.599,125.947 97.425 C 126.357 96.442,126.381 96.055,126.071 95.386 C 125.861 94.932,125.051 92.688,124.272 90.400 C 121.460 82.147,117.052 74.369,115.516 74.951 M69.709 76.335 C 70.122 77.242,70.214 79.366,69.840 79.350 C 68.902 79.310,68.436 77.760,68.761 75.760 C 68.844 75.248,69.355 75.558,69.709 76.335 M104.599 76.880 C 104.841 77.188,105.326 77.440,105.678 77.440 C 106.230 77.440,106.260 77.369,105.891 76.925 C 105.609 76.585,105.422 76.535,105.341 76.778 C 105.251 77.047,105.074 77.034,104.689 76.733 C 104.216 76.364,104.207 76.380,104.599 76.880 M105.374 80.832 C 105.599 81.568,105.796 81.801,105.962 81.532 C 106.160 81.211,106.422 81.209,107.245 81.519 C 108.717 82.075,108.747 81.775,107.310 80.880 C 105.196 79.562,104.982 79.557,105.374 80.832 M62.873 81.593 C 63.733 82.490,63.764 82.618,63.413 83.790 C 63.208 84.474,63.040 85.342,63.040 85.717 C 63.040 86.516,62.643 86.599,62.078 85.917 C 61.838 85.628,61.748 84.998,61.854 84.346 C 61.951 83.747,61.938 83.164,61.824 83.051 C 61.524 82.751,61.432 80.640,61.718 80.640 C 61.851 80.640,62.371 81.069,62.873 81.593 M71.535 81.745 C 72.522 82.733,72.562 83.320,71.621 83.021 C 71.236 82.899,70.491 82.777,69.964 82.751 C 69.438 82.725,68.949 82.526,68.876 82.309 C 68.804 82.093,68.614 81.997,68.453 82.097 C 68.030 82.358,68.093 81.969,68.560 81.439 C 69.194 80.718,70.659 80.870,71.535 81.745 M111.693 83.936 C 111.686 84.077,111.907 84.630,112.184 85.166 C 112.461 85.701,112.614 86.213,112.525 86.302 C 112.239 86.587,111.680 86.061,111.675 85.501 C 111.672 85.193,111.569 85.098,111.435 85.280 C 110.962 85.924,109.856 86.327,108.874 86.213 C 107.509 86.054,107.355 86.477,108.476 87.306 C 108.987 87.684,109.487 87.862,109.587 87.702 C 109.979 87.067,111.707 86.965,112.341 87.539 C 112.941 88.082,112.960 88.067,112.947 87.010 C 112.935 86.100,111.734 83.154,111.693 83.936 M69.243 86.683 C 71.154 88.614,71.355 89.314,70.261 90.223 C 70.022 90.421,69.896 90.850,69.981 91.176 C 70.194 91.992,69.690 92.216,68.684 91.751 C 67.703 91.297,67.625 91.096,67.367 88.324 C 67.261 87.182,67.092 85.922,66.992 85.524 C 66.706 84.383,67.239 84.658,69.243 86.683 M83.787 90.372 C 84.341 90.659,85.028 91.250,85.314 91.687 C 85.924 92.618,86.593 92.694,87.440 91.927 C 87.919 91.494,88.655 91.373,90.850 91.367 L 93.649 91.360 95.385 92.702 C 100.460 96.625,101.788 98.720,99.200 98.720 C 98.327 98.720,98.081 98.591,98.080 98.131 C 98.080 97.737,97.681 97.405,96.877 97.128 C 96.215 96.900,95.475 96.548,95.231 96.346 C 94.988 96.144,94.305 95.932,93.714 95.876 C 93.123 95.820,91.711 95.597,90.575 95.381 C 88.823 95.048,88.458 95.058,88.172 95.450 C 87.095 96.922,77.440 91.667,77.440 89.608 C 77.440 88.538,81.090 88.978,83.787 90.372 M61.732 92.543 C 62.745 93.920,62.929 94.400,62.444 94.400 C 62.090 94.400,60.480 92.090,60.480 91.583 C 60.480 90.964,60.688 91.124,61.732 92.543 M67.399 97.280 C 67.466 97.280,67.520 97.496,67.520 97.760 C 67.520 98.458,66.847 98.332,65.840 97.445 C 64.653 96.401,64.733 96.216,66.119 96.796 C 66.757 97.062,67.333 97.280,67.399 97.280 M71.504 98.282 C 71.682 98.445,71.400 98.560,70.823 98.560 C 70.282 98.560,69.659 98.344,69.440 98.080 C 68.993 97.541,70.897 97.728,71.504 98.282 M79.040 98.361 C 79.040 99.132,78.168 99.590,77.133 99.363 C 76.152 99.147,75.819 98.431,76.560 98.132 C 77.441 97.777,79.040 97.924,79.040 98.361 M85.800 98.880 C 87.164 98.880,87.834 99.034,88.240 99.440 C 88.635 99.835,89.192 99.971,90.130 99.903 C 92.882 99.703,93.845 100.305,94.557 102.672 C 94.816 103.531,93.135 103.421,92.235 102.521 C 91.993 102.278,91.545 102.080,91.241 102.080 C 90.937 102.080,90.542 101.934,90.364 101.756 C 90.145 101.537,89.700 101.550,88.994 101.796 C 88.239 102.059,87.756 102.065,87.254 101.815 C 86.872 101.625,85.912 101.295,85.120 101.081 C 84.328 100.867,83.543 100.572,83.376 100.426 C 83.209 100.280,82.830 100.160,82.535 100.160 C 82.240 100.160,81.840 99.969,81.647 99.736 C 81.106 99.084,81.893 98.481,83.000 98.699 C 83.506 98.798,84.766 98.880,85.800 98.880 M69.600 110.440 C 70.304 110.636,71.888 110.905,73.120 111.038 C 74.707 111.209,75.157 111.347,74.662 111.511 C 74.278 111.639,74.033 111.922,74.117 112.140 C 74.437 112.974,73.360 113.364,71.442 113.108 L 69.600 112.862 71.455 112.393 C 73.792 111.802,73.756 111.776,69.385 110.880 C 66.848 110.361,66.144 110.130,67.040 110.111 C 67.744 110.096,68.896 110.244,69.600 110.440 " stroke="none" fill="#0e0e0f" fill-rule="evenodd"></path><path id="path1" d="M0.000 160.000 L 0.000 320.000 35.841 320.000 L 71.682 320.000 71.601 279.781 L 71.520 239.562 64.785 237.583 C 61.081 236.495,55.033 234.655,51.345 233.495 C 47.657 232.334,42.084 230.632,38.960 229.712 L 33.280 228.040 33.280 206.394 L 33.280 184.748 35.280 182.476 C 39.951 177.171,44.461 172.169,46.476 170.058 C 48.525 167.912,48.782 167.461,51.491 161.258 C 53.061 157.662,55.004 153.248,55.809 151.449 L 57.271 148.178 57.555 139.769 L 57.839 131.360 56.679 130.427 C 43.104 119.508,38.134 102.637,43.554 85.873 L 44.190 83.905 43.543 82.841 C 43.078 82.077,42.946 81.458,43.075 80.648 C 43.373 78.778,42.267 76.638,39.534 73.800 C 31.204 65.150,29.354 58.138,32.004 45.262 C 37.450 18.791,56.242 10.088,96.520 15.380 C 125.575 19.198,139.178 29.665,153.431 59.171 C 158.901 70.494,160.013 72.450,161.736 73.764 C 162.757 74.542,166.563 76.160,167.375 76.160 C 167.556 76.160,167.680 74.040,167.680 70.938 C 167.680 63.446,168.890 60.511,172.380 59.542 C 174.893 58.845,371.434 59.102,372.983 59.806 C 374.545 60.515,376.094 62.303,376.595 63.975 C 376.864 64.872,376.960 83.532,376.960 134.641 L 376.960 204.087 376.066 205.799 C 375.415 207.045,374.747 207.773,373.611 208.475 L 372.050 209.440 325.065 209.523 L 278.080 209.606 278.080 264.803 L 278.080 320.000 339.040 320.000 L 400.000 320.000 400.000 160.000 L 400.000 0.000 200.000 0.000 L 0.000 0.000 0.000 160.000 M65.440 15.574 C 46.197 17.784,34.387 30.876,32.293 52.318 C 31.631 59.096,32.691 62.563,37.459 69.223 C 41.610 75.020,44.483 76.523,47.360 74.400 C 47.956 73.960,48.884 73.595,49.422 73.588 C 50.212 73.579,50.973 73.023,53.378 70.701 L 56.355 67.825 55.698 66.990 C 54.780 65.823,54.873 64.651,55.987 63.348 C 57.311 61.799,57.272 60.317,55.831 57.402 C 48.120 41.795,64.199 23.666,85.736 23.683 C 98.852 23.693,112.157 27.549,122.518 34.343 C 132.504 40.891,148.372 57.744,154.765 68.592 C 157.077 72.516,158.293 73.910,160.351 75.001 L 162.080 75.917 160.900 74.912 C 159.078 73.359,156.968 69.919,154.251 64.068 C 138.700 30.579,125.478 20.137,93.760 16.297 C 88.328 15.639,69.138 15.150,65.440 15.574 M80.480 25.312 C 67.217 27.205,55.809 37.484,55.425 47.887 C 55.131 55.849,57.695 60.178,62.378 59.623 C 64.192 59.408,65.353 60.091,65.730 61.595 L 65.914 62.328 68.557 61.412 C 70.011 60.909,72.239 60.322,73.508 60.108 L 75.816 59.719 75.776 58.662 C 75.729 57.395,76.473 56.478,77.943 55.992 C 79.583 55.451,80.821 53.203,81.027 50.394 C 81.926 38.150,102.185 34.563,119.961 43.500 C 128.750 47.919,142.071 59.170,150.675 69.440 C 154.919 74.507,156.194 75.687,158.261 76.460 C 160.781 77.403,161.391 77.269,159.505 76.188 C 157.290 74.917,155.967 73.356,153.344 68.916 C 145.297 55.297,126.413 36.928,114.786 31.411 C 105.344 26.931,89.222 24.064,80.480 25.312 M94.515 40.472 C 90.877 41.133,87.348 42.551,85.570 44.068 C 81.474 47.563,81.246 54.945,85.201 56.019 C 86.635 56.409,87.486 57.556,87.297 58.846 L 87.161 59.774 90.326 60.405 C 93.216 60.981,93.508 60.991,93.674 60.518 C 94.117 59.254,95.135 58.560,96.548 58.560 C 98.211 58.560,100.688 57.056,101.839 55.348 C 104.336 51.642,111.261 49.683,118.915 50.516 C 127.304 51.428,132.657 55.021,144.782 67.875 C 152.765 76.338,155.379 78.218,160.000 78.818 C 161.242 78.979,161.126 78.903,159.155 78.270 C 156.134 77.299,154.877 76.481,153.051 74.297 C 131.259 48.239,112.249 37.254,94.515 40.472 M109.861 52.321 C 107.240 52.891,105.355 53.752,103.863 55.063 L 102.638 56.138 102.836 58.487 C 102.993 60.340,103.213 61.070,103.879 61.942 C 104.526 62.791,104.683 63.290,104.554 64.086 C 104.394 65.074,104.474 65.173,106.210 66.120 L 108.035 67.115 108.915 66.357 C 109.876 65.531,110.724 65.408,111.736 65.950 C 112.449 66.332,116.511 65.505,117.440 64.789 C 119.213 63.423,123.987 62.506,126.553 63.039 C 131.042 63.970,133.756 65.857,140.941 73.036 C 150.097 82.185,153.907 83.765,160.960 81.334 C 164.854 79.991,164.842 79.840,160.842 79.840 C 154.559 79.840,153.710 79.235,140.154 65.104 C 129.086 53.567,120.602 49.986,109.861 52.321 M77.087 57.313 C 75.303 59.097,78.425 63.040,81.620 63.040 C 84.777 63.040,87.775 59.023,85.920 57.280 L 85.120 56.528 85.120 57.576 C 85.120 59.179,83.364 60.800,81.627 60.800 C 79.867 60.800,77.973 59.167,77.973 57.649 C 77.973 56.453,77.954 56.446,77.087 57.313 M95.680 59.422 C 93.066 60.356,94.623 65.525,97.837 66.585 C 101.099 67.662,105.346 64.737,103.493 62.690 C 103.015 62.162,102.937 62.185,102.112 63.109 C 100.094 65.367,96.778 63.915,96.823 60.792 C 96.846 59.220,96.708 59.055,95.680 59.422 M62.548 61.309 C 63.436 63.020,61.787 65.600,59.806 65.600 C 58.570 65.600,56.960 64.766,56.960 64.125 C 56.960 63.351,56.196 63.792,55.852 64.763 C 54.941 67.343,60.337 69.264,62.973 67.299 C 65.764 65.219,65.908 60.480,63.180 60.480 C 62.140 60.480,62.127 60.497,62.548 61.309 M122.720 64.331 C 120.586 64.643,118.457 65.535,118.285 66.190 C 117.597 68.813,117.392 70.761,117.707 71.667 C 118.073 72.716,117.940 73.435,117.226 74.271 C 116.854 74.706,116.878 74.894,117.391 75.551 C 121.318 80.580,127.290 95.374,126.262 97.528 C 124.914 100.355,126.089 103.073,130.719 107.840 C 136.761 114.060,137.012 116.635,131.833 119.290 C 128.643 120.927,128.211 122.571,129.638 127.654 C 130.182 129.593,130.272 130.512,130.093 132.315 C 129.971 133.550,129.771 136.432,129.647 138.720 C 129.400 143.304,129.273 143.673,127.341 145.419 C 125.397 147.176,124.140 147.595,120.320 147.763 L 116.960 147.910 113.600 149.805 C 109.074 152.357,106.194 154.526,104.972 156.303 C 103.979 157.745,97.472 170.566,97.663 170.702 C 97.716 170.740,99.434 171.760,101.479 172.969 L 105.198 175.168 109.186 180.464 C 111.379 183.377,117.513 191.481,122.819 198.472 C 128.124 205.464,133.272 212.277,134.258 213.611 L 136.052 216.036 133.706 218.720 C 132.416 220.196,129.056 223.952,126.240 227.068 C 123.424 230.183,120.112 233.864,118.880 235.247 C 104.374 251.535,105.869 250.200,103.179 249.268 C 102.134 248.906,97.392 247.460,92.640 246.056 C 87.888 244.651,83.604 243.369,83.120 243.208 L 82.240 242.913 82.240 281.457 L 82.240 320.000 175.040 320.000 L 267.840 320.000 267.840 264.800 L 267.840 209.600 220.880 209.598 C 168.945 209.596,172.176 209.737,169.892 207.383 C 167.526 204.944,167.680 209.562,167.680 141.158 L 167.680 79.400 165.680 80.614 C 162.115 82.779,160.032 83.360,155.840 83.360 C 149.983 83.360,147.799 82.091,140.412 74.396 C 132.571 66.229,127.905 63.574,122.720 64.331 M108.968 67.504 C 107.232 70.861,109.632 74.876,113.376 74.879 C 115.961 74.881,117.486 73.658,116.962 72.005 C 116.764 71.382,116.743 71.383,115.793 72.085 C 112.494 74.525,107.507 69.737,110.675 67.172 L 111.431 66.560 110.444 66.560 C 109.674 66.560,109.349 66.768,108.968 67.504 M184.000 103.200 L 184.000 134.720 215.520 134.720 L 247.040 134.720 247.040 103.200 L 247.040 71.680 215.520 71.680 L 184.000 71.680 184.000 103.200 M256.640 103.200 L 256.640 134.720 309.440 134.720 L 362.240 134.720 362.240 103.200 L 362.240 71.680 309.440 71.680 L 256.640 71.680 256.640 103.200 M297.729 80.960 C 298.359 84.568,299.406 90.730,300.056 94.654 C 300.707 98.577,301.338 101.601,301.460 101.374 C 301.581 101.146,302.598 97.252,303.719 92.720 C 304.841 88.188,305.860 84.480,305.984 84.480 C 306.301 84.480,306.477 85.191,309.286 97.840 C 310.664 104.044,311.875 109.120,311.978 109.120 C 312.080 109.120,312.866 107.387,313.725 105.268 C 315.642 100.540,315.833 100.579,316.626 105.866 C 317.149 109.351,317.760 111.396,317.760 109.661 C 317.760 109.430,318.328 105.290,319.023 100.461 C 319.718 95.631,320.385 90.777,320.505 89.673 C 320.898 86.077,321.078 86.431,323.971 96.480 C 324.579 98.592,325.087 100.248,325.100 100.160 C 325.225 99.327,327.360 79.759,327.360 79.450 C 327.360 78.487,328.612 79.044,328.773 80.080 C 329.196 82.789,332.797 120.191,332.799 121.893 C 332.802 124.715,333.890 120.191,336.970 104.543 C 338.631 96.108,338.604 96.105,340.503 104.901 C 342.063 112.122,342.117 112.157,342.868 106.423 C 343.374 102.560,343.535 101.983,343.937 102.600 C 344.426 103.349,347.656 107.489,347.704 107.427 C 347.732 107.390,348.957 102.131,350.426 95.739 C 352.101 88.450,353.182 84.335,353.326 84.699 C 353.452 85.019,353.565 89.184,353.578 93.954 L 353.600 102.629 357.195 102.856 C 361.116 103.104,361.126 103.107,360.850 103.826 C 360.636 104.382,359.285 104.447,354.960 104.111 L 352.320 103.905 352.291 99.073 C 352.257 93.431,352.297 93.353,350.125 103.334 C 349.304 107.104,348.491 110.234,348.317 110.289 C 348.142 110.344,347.215 109.290,346.255 107.948 C 344.145 104.996,344.304 104.730,343.347 112.800 C 342.427 120.556,342.501 120.607,340.320 110.720 C 339.486 106.936,338.765 103.796,338.717 103.743 C 338.578 103.584,337.633 107.969,335.229 119.938 C 333.981 126.153,332.816 131.232,332.640 131.227 C 332.451 131.221,331.476 122.206,330.251 109.128 C 328.390 89.250,327.728 84.007,327.656 88.560 C 327.605 91.776,325.908 106.718,325.600 106.663 C 325.265 106.604,325.034 105.871,322.865 97.988 C 322.124 95.297,321.478 93.137,321.430 93.188 C 321.381 93.238,320.589 98.896,319.671 105.760 C 317.488 122.072,317.682 121.708,316.181 112.339 C 315.633 108.918,315.142 106.075,315.088 106.021 C 315.035 105.968,314.292 107.543,313.437 109.522 C 311.701 113.542,311.747 113.454,311.503 113.209 C 311.267 112.974,306.248 91.220,306.244 90.416 C 306.232 88.365,304.009 96.292,302.061 105.334 C 301.127 109.666,301.081 109.526,298.699 95.153 C 297.565 88.315,296.595 82.504,296.543 82.240 C 296.414 81.586,295.954 85.853,294.232 103.680 C 292.176 124.968,292.310 124.872,290.526 106.313 C 290.318 104.153,290.090 102.443,290.019 102.514 C 289.910 102.623,288.481 112.490,286.200 128.880 C 285.328 135.143,285.351 135.211,283.356 120.480 C 281.304 105.329,281.640 106.351,280.350 111.337 C 279.063 116.315,278.903 116.509,278.408 113.679 C 278.045 111.603,275.351 94.123,275.141 92.480 C 275.022 91.548,273.734 93.397,269.984 99.885 C 268.800 101.933,267.634 103.773,267.392 103.973 C 266.599 104.631,257.473 104.292,257.341 103.600 C 257.242 103.088,257.626 103.040,261.862 103.040 L 266.490 103.040 270.911 95.675 C 273.342 91.624,275.479 88.360,275.661 88.420 C 275.842 88.481,276.726 93.415,277.626 99.385 C 279.122 109.315,279.291 110.131,279.611 108.960 C 279.803 108.256,280.313 106.341,280.742 104.705 C 282.021 99.837,281.902 99.569,283.479 110.880 C 285.419 124.790,285.306 124.113,285.537 123.200 C 285.834 122.025,289.920 93.163,289.920 92.239 C 289.920 92.125,290.058 92.170,290.227 92.339 C 290.397 92.509,290.904 96.093,291.355 100.304 C 291.806 104.516,292.217 108.004,292.269 108.055 C 292.320 108.107,292.610 105.596,292.913 102.475 C 293.537 96.034,295.591 76.739,295.884 74.560 C 296.162 72.494,296.390 73.286,297.729 80.960 M230.080 74.358 C 230.080 74.955,231.666 85.814,233.755 99.520 C 234.707 105.768,235.589 111.600,235.715 112.480 L 235.944 114.080 236.348 113.120 C 236.571 112.592,237.518 110.036,238.453 107.440 L 240.154 102.720 243.460 102.720 C 246.437 102.720,246.756 102.776,246.660 103.280 C 246.570 103.752,246.125 103.854,243.818 103.932 L 241.083 104.023 238.567 111.292 C 236.113 118.383,235.713 119.340,235.358 118.984 C 235.263 118.889,234.404 113.427,233.449 106.846 C 230.380 85.696,229.960 83.091,229.724 83.718 C 229.599 84.049,229.183 87.128,228.799 90.560 C 228.415 93.992,227.387 102.488,226.515 109.440 C 225.643 116.392,224.645 124.456,224.297 127.360 C 223.601 133.163,223.415 134.241,223.155 133.981 C 222.949 133.776,220.498 110.811,220.487 108.987 C 220.473 106.508,220.084 108.236,219.006 115.564 C 218.404 119.663,217.769 123.159,217.595 123.333 C 217.422 123.506,217.280 123.550,217.280 123.429 C 217.280 122.580,213.565 97.964,213.237 96.640 C 213.111 96.132,212.426 99.281,211.357 105.280 C 208.200 122.998,208.609 122.089,207.324 114.240 C 206.936 111.864,206.523 109.810,206.408 109.676 C 206.293 109.541,205.941 114.077,205.625 119.756 C 204.851 133.676,204.981 133.643,202.104 120.640 C 200.369 112.794,196.431 95.834,196.061 94.608 C 195.986 94.360,192.583 108.879,190.523 118.240 C 190.058 120.352,189.552 122.217,189.399 122.384 C 189.240 122.557,189.120 118.673,189.120 113.359 L 189.120 104.029 186.963 103.935 C 185.209 103.858,184.787 103.736,184.700 103.280 C 184.605 102.780,184.904 102.720,187.488 102.720 L 190.383 102.720 190.471 107.393 L 190.560 112.067 193.110 100.513 C 194.534 94.062,195.812 88.960,196.004 88.960 C 196.194 88.960,197.180 92.728,198.203 97.360 C 199.873 104.927,200.986 109.711,203.246 119.040 C 203.654 120.725,204.019 121.723,204.064 121.280 C 204.109 120.840,204.445 115.656,204.810 109.760 C 205.671 95.863,205.691 95.839,207.386 106.720 C 208.503 113.890,208.493 113.850,208.796 111.942 C 209.093 110.065,210.666 100.907,211.862 94.080 C 213.346 85.618,213.135 85.211,215.350 100.800 C 217.332 114.749,217.432 115.315,217.707 114.240 C 217.820 113.800,218.347 110.272,218.880 106.400 C 220.546 94.272,220.408 94.126,221.923 109.600 C 222.164 112.064,222.522 115.808,222.718 117.920 C 223.388 125.147,223.090 126.708,226.385 98.720 C 227.193 91.856,227.919 85.808,227.998 85.280 C 228.077 84.752,228.369 82.304,228.646 79.840 C 228.924 77.376,229.219 75.036,229.302 74.640 C 229.464 73.862,230.080 73.639,230.080 74.358 M48.533 74.601 C 47.969 74.929,47.971 74.968,48.590 75.631 C 49.955 77.094,49.739 79.416,48.139 80.464 C 47.290 81.020,44.946 81.135,44.637 80.635 C 44.317 80.117,43.840 80.606,43.840 81.452 C 43.840 84.043,49.615 83.805,51.237 81.146 C 53.033 78.199,50.963 73.188,48.533 74.601 M184.000 169.920 L 184.000 198.080 273.120 198.080 L 362.240 198.080 362.240 169.920 L 362.240 141.760 273.120 141.760 L 184.000 141.760 184.000 169.920 M252.282 149.520 C 252.915 151.324,254.354 155.464,255.481 158.720 C 258.498 167.441,259.297 169.600,259.506 169.600 C 259.609 169.600,261.397 166.281,263.480 162.224 C 265.562 158.168,267.412 154.897,267.590 154.957 C 267.768 155.016,268.667 156.715,269.588 158.732 C 270.510 160.750,272.094 164.128,273.110 166.240 C 274.126 168.352,275.514 171.268,276.196 172.720 C 277.697 175.919,277.152 176.007,280.640 172.000 C 282.249 170.152,283.693 168.640,283.849 168.640 C 284.005 168.640,284.810 170.742,285.637 173.310 C 286.536 176.103,287.234 177.807,287.374 177.550 C 287.571 177.185,289.816 169.236,292.240 160.320 C 293.091 157.189,293.385 156.817,294.084 157.983 C 294.379 158.476,295.900 161.067,297.463 163.741 C 299.026 166.414,300.354 168.552,300.414 168.493 C 300.544 168.362,303.722 154.195,304.503 150.260 C 305.359 145.952,305.258 145.596,309.593 168.160 C 311.520 178.189,313.258 186.887,313.487 187.642 C 313.667 188.233,315.526 184.037,320.880 170.955 C 322.052 168.092,323.142 165.794,323.303 165.848 C 323.463 165.901,324.810 168.603,326.296 171.852 C 327.782 175.102,329.103 177.867,329.232 177.997 C 329.361 178.128,329.946 176.328,330.532 173.997 C 331.889 168.603,331.521 168.784,335.678 171.462 C 339.113 173.675,339.230 173.723,339.501 173.032 C 339.654 172.641,340.955 169.872,342.392 166.880 C 343.828 163.888,345.590 160.108,346.308 158.480 C 347.025 156.852,347.735 155.520,347.886 155.520 C 348.037 155.520,348.160 158.616,348.160 162.400 L 348.160 169.280 354.160 169.285 C 360.241 169.290,361.210 169.447,360.857 170.368 C 360.643 170.923,353.078 171.117,348.847 170.674 L 346.880 170.469 346.867 165.634 L 346.853 160.800 346.245 161.920 C 345.910 162.536,344.376 165.812,342.835 169.200 C 339.621 176.266,340.111 175.954,336.160 173.440 C 334.501 172.384,333.030 171.520,332.891 171.521 C 332.753 171.521,332.061 173.778,331.353 176.536 C 330.646 179.294,329.926 181.597,329.753 181.653 C 329.581 181.709,328.072 178.861,326.401 175.324 L 323.361 168.894 322.286 171.247 C 321.694 172.541,319.657 177.416,317.759 182.080 C 312.925 193.955,313.226 193.447,312.676 190.640 C 312.495 189.716,311.759 186.080,311.042 182.560 C 309.588 175.430,306.482 159.693,305.894 156.480 C 305.322 153.356,305.134 153.522,304.193 157.984 C 303.718 160.237,302.863 164.302,302.294 167.017 C 301.724 169.732,301.119 171.997,300.949 172.050 C 300.779 172.103,299.134 169.491,297.294 166.245 C 295.454 163.000,293.891 160.402,293.821 160.472 C 293.709 160.584,290.906 170.152,288.405 178.958 C 287.918 180.672,287.425 182.076,287.309 182.078 C 287.099 182.080,286.283 179.822,284.438 174.125 L 283.468 171.130 282.534 172.025 C 282.020 172.517,280.704 173.973,279.608 175.260 C 277.052 178.262,277.240 178.344,274.867 173.200 C 273.751 170.780,271.633 166.291,270.161 163.225 L 267.484 157.649 266.849 158.695 C 266.499 159.270,264.706 162.751,262.865 166.430 C 261.024 170.110,259.407 173.120,259.273 173.120 C 259.139 173.120,258.143 170.564,257.058 167.440 C 250.943 149.818,251.144 150.355,250.966 151.200 C 250.892 151.552,250.401 153.784,249.876 156.160 C 248.981 160.203,247.132 168.997,245.233 178.240 C 244.027 184.112,244.035 184.121,242.082 174.560 C 240.339 166.024,240.327 165.998,239.546 169.045 C 238.784 172.019,233.836 189.322,233.027 191.840 L 232.410 193.760 232.039 192.843 C 231.728 192.076,229.818 185.664,226.510 174.284 C 225.764 171.718,225.931 171.605,223.370 176.400 C 222.453 178.116,221.577 179.520,221.423 179.520 C 221.153 179.520,220.105 176.357,216.660 165.150 C 214.719 158.835,215.129 159.267,212.892 161.176 C 211.873 162.045,208.775 164.584,206.007 166.818 L 200.973 170.880 192.944 170.880 L 184.915 170.880 185.018 170.160 L 185.120 169.440 192.989 169.355 L 200.858 169.269 202.109 168.207 C 205.450 165.371,215.425 157.399,215.514 157.493 C 215.708 157.697,221.440 175.522,221.440 175.920 C 221.440 176.866,222.028 176.118,223.669 173.085 C 225.634 169.454,226.111 168.725,226.359 168.973 C 226.580 169.194,232.000 188.152,232.000 188.704 C 232.000 189.663,232.536 189.010,232.906 187.600 C 233.784 184.246,237.248 172.034,238.600 167.520 C 239.391 164.880,240.114 162.457,240.208 162.136 C 240.523 161.057,240.793 161.937,242.432 169.384 L 244.065 176.800 244.461 174.880 C 244.679 173.824,245.555 169.792,246.407 165.920 C 247.260 162.048,248.481 156.288,249.120 153.120 C 250.819 144.700,250.655 144.887,252.282 149.520 " stroke="none" fill="#fbfbfb" fill-rule="evenodd"></path><path id="path2" d="M79.520 56.261 C 77.513 56.725,78.444 59.757,80.772 60.342 C 83.146 60.937,85.978 58.016,84.342 56.658 C 83.787 56.197,80.845 55.955,79.520 56.261 M110.415 68.274 C 109.525 70.972,112.222 73.421,114.875 72.322 C 116.730 71.554,116.511 70.457,114.107 68.469 C 112.100 66.812,110.918 66.749,110.415 68.274 M183.040 103.362 L 183.040 136.003 215.600 135.922 L 248.160 135.840 248.242 103.280 L 248.323 70.720 215.682 70.720 L 183.040 70.720 183.040 103.362 M255.680 103.361 L 255.680 136.002 309.520 135.921 L 363.360 135.840 363.442 103.280 L 363.523 70.720 309.602 70.720 L 255.680 70.720 255.680 103.361 M247.360 103.200 L 247.360 135.040 215.520 135.040 L 183.680 135.040 183.680 103.200 L 183.680 71.360 215.520 71.360 L 247.360 71.360 247.360 103.200 M362.560 103.200 L 362.560 135.040 309.440 135.040 L 256.320 135.040 256.320 103.200 L 256.320 71.360 309.440 71.360 L 362.560 71.360 362.560 103.200 M296.000 74.868 C 296.000 75.729,292.885 107.026,292.596 109.064 C 292.249 111.517,291.942 110.073,291.212 102.560 C 290.819 98.512,290.398 94.783,290.277 94.273 C 290.131 93.660,289.312 98.806,287.857 109.473 C 286.648 118.343,285.609 125.660,285.549 125.733 C 285.289 126.051,285.119 125.052,283.700 114.880 C 281.663 100.282,281.951 101.116,280.664 106.086 C 280.073 108.371,279.489 110.433,279.366 110.669 C 279.153 111.077,278.671 108.325,276.586 94.800 C 276.091 91.588,275.597 88.960,275.487 88.960 C 275.378 88.960,273.392 92.124,271.074 95.991 L 266.860 103.023 262.336 103.111 C 259.067 103.175,257.776 103.311,257.680 103.600 C 257.577 103.908,258.651 104.000,262.355 104.000 L 267.162 104.000 270.960 97.680 C 273.049 94.204,274.893 91.412,275.059 91.476 C 275.343 91.586,278.663 112.115,278.702 114.000 C 278.731 115.428,279.221 115.009,279.634 113.200 C 280.514 109.357,281.377 106.531,281.597 106.777 C 281.727 106.922,282.608 112.548,283.556 119.280 C 284.504 126.012,285.352 131.520,285.440 131.520 C 285.528 131.520,286.523 124.716,287.651 116.400 C 290.249 97.240,290.011 97.696,291.205 109.600 C 291.875 116.282,292.159 118.512,292.318 118.342 C 292.370 118.286,293.229 110.176,294.227 100.320 C 295.225 90.464,296.144 81.973,296.269 81.452 C 296.434 80.766,297.103 84.036,298.690 93.292 C 299.896 100.325,300.988 106.278,301.116 106.519 C 301.249 106.770,302.140 103.671,303.185 99.319 C 304.195 95.118,305.168 91.068,305.348 90.320 C 305.528 89.572,305.776 88.960,305.898 88.960 C 306.117 88.960,307.867 96.190,310.294 107.119 C 310.968 110.154,311.592 112.636,311.680 112.635 C 311.768 112.634,312.545 110.898,313.407 108.779 C 315.315 104.084,315.235 104.008,316.467 111.668 C 317.349 117.146,317.760 119.094,317.760 117.796 C 317.760 117.343,320.852 94.768,321.133 93.167 C 321.403 91.631,321.442 91.728,323.509 99.029 C 325.336 105.480,325.757 106.673,325.763 105.413 C 325.764 105.076,326.039 102.280,326.374 99.200 C 326.709 96.120,327.161 91.800,327.380 89.600 C 327.598 87.400,327.866 85.348,327.975 85.040 C 328.085 84.732,328.717 90.132,329.381 97.040 C 332.006 124.373,332.617 130.230,332.818 130.000 C 332.933 129.868,334.223 123.712,335.684 116.320 C 337.145 108.928,338.397 102.812,338.467 102.729 C 338.759 102.384,339.119 103.653,340.629 110.372 C 341.504 114.259,342.297 117.440,342.392 117.440 C 342.487 117.440,342.827 115.244,343.148 112.560 C 344.232 103.498,343.860 104.127,346.223 107.369 C 347.181 108.684,348.052 109.760,348.159 109.760 C 348.265 109.760,349.209 105.994,350.256 101.390 L 352.160 93.021 352.248 98.315 C 352.350 104.534,351.873 103.989,357.227 103.996 C 362.204 104.002,361.882 103.237,356.854 103.110 L 353.280 103.019 353.255 94.150 C 353.239 88.747,353.122 85.593,352.954 86.080 C 352.802 86.520,351.637 91.596,350.366 97.360 C 349.094 103.124,347.933 107.840,347.785 107.840 C 347.638 107.840,346.654 106.676,345.599 105.253 C 344.512 103.787,343.622 102.851,343.544 103.093 C 343.414 103.500,342.390 112.148,342.397 112.784 C 342.411 114.167,341.592 111.397,340.296 105.680 C 339.448 101.940,338.665 98.880,338.555 98.880 C 338.445 98.880,337.228 104.604,335.851 111.600 C 333.741 122.309,332.813 126.267,332.797 124.624 C 332.795 124.457,332.379 120.144,331.871 115.040 C 331.364 109.936,330.393 99.820,329.714 92.560 C 328.083 75.113,328.057 75.105,326.396 91.520 C 325.871 96.712,325.441 101.068,325.440 101.200 C 325.438 102.572,324.595 100.283,323.027 94.647 C 321.268 88.324,321.121 87.943,320.894 89.127 C 320.761 89.827,319.994 95.291,319.191 101.268 C 317.401 114.587,317.582 114.191,316.480 107.200 C 316.106 104.824,315.726 102.664,315.637 102.400 C 315.548 102.135,314.725 103.672,313.800 105.831 C 311.795 110.513,311.818 110.484,311.445 108.743 C 310.121 102.562,306.049 85.440,305.904 85.440 C 305.803 85.440,304.807 89.292,303.691 94.000 C 302.574 98.708,301.557 102.679,301.431 102.823 C 301.107 103.195,301.087 103.091,298.561 88.009 C 296.424 75.248,296.000 73.072,296.000 74.868 M45.962 76.838 C 43.972 79.163,44.033 80.640,46.120 80.640 C 48.339 80.640,49.624 79.175,49.131 77.208 C 48.606 75.118,47.540 74.994,45.962 76.838 M229.440 76.080 C 229.440 76.583,228.850 81.459,225.578 108.000 C 225.057 112.224,224.402 117.696,224.122 120.160 C 223.510 125.552,223.197 126.103,222.885 122.344 C 222.444 117.029,220.563 99.497,220.419 99.352 C 220.339 99.272,219.726 102.986,219.056 107.604 C 218.386 112.222,217.739 116.186,217.619 116.413 C 217.498 116.640,217.073 114.552,216.672 111.773 C 215.246 101.869,213.424 89.755,213.312 89.440 C 213.139 88.950,212.956 89.861,210.728 102.367 C 209.586 108.773,208.594 114.073,208.523 114.144 C 208.385 114.282,208.238 113.493,206.842 105.120 C 205.753 98.587,205.823 98.281,204.938 113.520 C 204.619 119.020,204.251 123.520,204.120 123.520 C 203.809 123.520,203.824 123.576,201.918 115.040 C 199.443 103.953,196.159 89.813,196.029 89.682 C 195.892 89.546,194.955 93.509,192.453 104.800 C 190.210 114.924,190.080 115.121,190.080 108.384 L 190.080 103.040 187.520 103.040 C 184.414 103.040,184.090 103.613,187.120 103.745 L 189.280 103.840 189.440 112.480 L 189.600 121.120 192.659 107.360 C 194.341 99.792,195.846 93.600,196.003 93.600 C 196.160 93.600,196.906 96.336,197.661 99.680 C 203.870 127.184,204.768 130.800,204.790 128.372 C 204.809 126.368,206.113 107.380,206.241 107.252 C 206.417 107.076,206.567 107.846,207.567 114.061 C 208.047 117.043,208.478 119.347,208.525 119.181 C 208.572 119.016,209.569 113.408,210.740 106.720 C 212.801 94.952,212.967 94.139,213.252 94.427 C 213.325 94.500,214.292 100.853,215.402 108.544 C 216.511 116.235,217.468 122.478,217.529 122.417 C 217.590 122.356,218.136 118.871,218.742 114.673 C 220.079 105.403,220.163 105.014,220.487 106.560 C 220.617 107.176,221.272 113.328,221.944 120.231 C 222.616 127.134,223.226 132.721,223.300 132.647 C 223.374 132.573,224.059 127.213,224.822 120.736 C 227.637 96.851,229.539 81.753,229.766 81.496 C 229.894 81.351,230.170 82.431,230.378 83.896 C 232.470 98.607,235.282 117.395,235.460 117.852 C 235.612 118.240,236.518 116.088,238.290 111.132 L 240.897 103.840 243.649 103.748 C 245.203 103.695,246.400 103.516,246.400 103.336 C 246.400 103.140,245.217 103.052,243.323 103.108 L 240.246 103.200 238.259 108.941 C 236.122 115.115,235.716 115.748,235.423 113.371 C 235.319 112.529,234.212 104.856,232.965 96.320 C 231.717 87.784,230.538 79.612,230.345 78.160 C 230.040 75.861,229.440 74.483,229.440 76.080 M183.040 170.081 L 183.040 199.361 273.200 199.281 L 363.360 199.200 363.442 170.000 L 363.523 140.800 273.282 140.800 L 183.040 140.800 183.040 170.081 M362.560 169.920 L 362.560 198.400 273.120 198.400 L 183.680 198.400 183.680 170.133 C 183.680 154.587,183.776 141.771,183.893 141.653 C 184.011 141.536,224.259 141.440,273.333 141.440 L 362.560 141.440 362.560 169.920 M250.349 148.551 C 249.594 152.528,244.354 177.454,244.245 177.591 C 243.937 177.978,243.509 176.425,242.261 170.391 C 241.521 166.809,240.809 163.483,240.680 163.000 C 240.484 162.269,240.243 162.846,239.247 166.420 C 236.508 176.252,232.507 189.760,232.334 189.760 C 232.232 189.760,230.867 185.332,229.301 179.920 C 227.734 174.508,226.358 169.891,226.242 169.660 C 226.115 169.405,225.225 170.753,223.976 173.094 C 222.845 175.213,221.822 176.950,221.703 176.954 C 221.499 176.960,219.484 170.859,216.765 162.000 C 216.103 159.844,215.449 158.080,215.313 158.080 C 215.176 158.080,211.864 160.670,207.954 163.835 L 200.843 169.589 193.061 169.675 C 182.547 169.790,182.567 170.370,193.088 170.486 L 200.897 170.571 207.833 164.926 C 211.647 161.821,214.883 159.406,215.023 159.560 C 215.162 159.714,216.617 164.088,218.254 169.280 C 219.892 174.472,221.318 178.824,221.423 178.952 C 221.529 179.079,222.529 177.447,223.645 175.325 C 224.762 173.204,225.791 171.587,225.932 171.734 C 226.165 171.976,229.653 183.654,231.363 189.920 C 232.189 192.943,232.479 193.367,232.760 191.958 C 233.087 190.326,240.073 166.268,240.295 166.009 C 240.405 165.882,241.272 169.373,242.222 173.767 C 243.173 178.161,244.012 181.695,244.086 181.621 C 244.233 181.474,245.334 176.356,248.497 161.120 C 251.034 148.903,250.865 149.610,251.167 149.954 C 251.306 150.111,251.792 151.320,252.248 152.640 C 257.738 168.539,258.979 172.041,259.208 172.282 C 259.355 172.437,261.209 169.100,263.339 164.842 C 265.464 160.595,267.314 157.120,267.451 157.120 C 267.588 157.120,268.912 159.748,270.394 162.960 C 274.041 170.863,277.107 177.107,277.377 177.181 C 277.500 177.215,278.882 175.737,280.450 173.898 C 282.017 172.058,283.385 170.637,283.490 170.739 C 283.594 170.841,284.491 173.327,285.483 176.262 C 286.474 179.198,287.368 181.384,287.469 181.120 C 287.570 180.856,288.872 176.320,290.362 171.040 C 291.852 165.760,293.231 161.021,293.427 160.508 C 293.789 159.563,295.130 161.572,299.976 170.317 C 300.341 170.976,300.727 171.516,300.834 171.517 C 301.008 171.520,302.415 165.345,304.353 156.072 C 304.749 154.176,305.181 152.736,305.313 152.872 C 305.511 153.076,310.469 177.704,312.530 188.720 C 312.835 190.348,313.164 191.679,313.262 191.677 C 313.360 191.676,315.304 187.176,317.583 181.677 C 323.262 167.974,323.176 168.166,323.495 168.503 C 323.649 168.667,325.043 171.572,326.591 174.960 C 328.140 178.348,329.492 181.120,329.596 181.120 C 329.699 181.120,330.335 178.978,331.009 176.360 C 331.682 173.742,332.340 171.427,332.471 171.215 C 332.637 170.947,333.689 171.465,335.962 172.935 C 337.751 174.093,339.334 175.040,339.479 175.040 C 339.730 175.040,342.793 168.787,345.470 162.808 C 347.133 159.093,347.200 159.182,347.200 165.120 L 347.200 170.240 351.840 170.309 C 360.098 170.433,360.419 170.422,360.558 170.007 C 360.658 169.707,359.188 169.593,354.344 169.527 L 348.000 169.440 347.840 162.890 L 347.680 156.340 345.722 160.490 C 344.645 162.772,342.788 166.764,341.595 169.360 C 340.403 171.956,339.340 174.080,339.234 174.079 C 339.127 174.079,337.532 173.074,335.689 171.847 C 333.846 170.619,332.240 169.719,332.120 169.847 C 331.931 170.050,331.353 172.079,329.920 177.561 C 329.453 179.347,329.545 179.477,326.233 172.400 C 324.688 169.100,323.338 166.403,323.232 166.406 C 323.126 166.409,322.261 168.317,321.309 170.646 C 316.422 182.601,313.787 188.800,313.592 188.800 C 313.473 188.800,311.599 179.836,309.428 168.880 C 307.257 157.924,305.436 148.900,305.380 148.827 C 305.149 148.519,304.936 149.393,303.053 158.400 C 300.690 169.706,300.790 169.280,300.488 169.280 C 300.355 169.280,298.761 166.684,296.947 163.512 C 295.132 160.340,293.554 157.856,293.439 157.992 C 293.269 158.194,289.246 171.900,287.919 176.800 C 287.332 178.967,287.160 178.762,285.596 174.028 C 284.762 171.505,283.982 169.331,283.862 169.198 C 283.741 169.064,282.288 170.538,280.632 172.472 C 278.976 174.407,277.508 175.876,277.371 175.739 C 277.233 175.601,275.270 171.535,273.009 166.704 C 270.748 161.873,268.568 157.276,268.166 156.489 L 267.434 155.057 263.649 162.622 C 261.567 166.783,259.732 170.269,259.572 170.368 C 259.411 170.467,258.592 168.571,257.752 166.154 C 250.546 145.426,250.820 146.076,250.349 148.551 " stroke="none" fill="#c5d11b" fill-rule="evenodd"></path><path id="path3" d="M171.357 134.240 C 171.357 172.432,171.394 188.008,171.440 168.854 C 171.486 149.700,171.486 118.452,171.440 99.414 C 171.394 80.376,171.357 96.048,171.357 134.240 M373.597 134.240 C 373.597 172.080,373.634 187.608,373.680 168.746 C 373.726 149.884,373.726 118.924,373.680 99.946 C 373.634 80.968,373.597 96.400,373.597 134.240 M98.960 67.741 C 99.268 67.821,99.772 67.821,100.080 67.741 C 100.388 67.660,100.136 67.594,99.520 67.594 C 98.904 67.594,98.652 67.660,98.960 67.741 M78.640 68.074 C 79.388 68.142,80.612 68.142,81.360 68.074 C 82.108 68.007,81.496 67.952,80.000 67.952 C 78.504 67.952,77.892 68.007,78.640 68.074 M89.844 69.986 C 90.242 70.063,90.818 70.060,91.124 69.980 C 91.430 69.900,91.104 69.837,90.400 69.841 C 89.696 69.844,89.446 69.910,89.844 69.986 M75.360 70.400 C 75.123 70.783,75.133 70.788,76.205 70.856 C 76.779 70.892,76.999 70.776,76.891 70.494 C 76.703 70.005,75.644 69.940,75.360 70.400 M93.634 70.633 C 93.506 70.761,92.654 70.962,91.740 71.080 L 90.080 71.294 92.027 71.254 C 93.369 71.227,93.973 71.088,93.973 70.807 C 93.973 70.334,93.946 70.320,93.634 70.633 M182.798 103.280 L 182.877 136.160 182.960 103.442 L 183.043 70.723 215.762 70.640 L 248.480 70.557 215.600 70.478 L 182.720 70.400 182.798 103.280 M255.438 103.280 L 255.517 136.160 255.600 103.441 L 255.683 70.722 309.682 70.640 L 363.680 70.558 309.520 70.479 L 255.360 70.400 255.438 103.280 M183.758 103.280 L 183.837 135.200 183.920 103.442 L 184.003 71.683 215.762 71.600 L 247.520 71.517 215.600 71.438 L 183.680 71.360 183.758 103.280 M256.398 103.280 L 256.477 135.200 256.560 103.440 L 256.643 71.680 309.440 71.680 L 362.237 71.680 362.320 103.440 L 362.403 135.200 362.482 103.280 L 362.560 71.360 309.440 71.360 L 256.320 71.360 256.398 103.280 M78.240 75.219 C 78.768 75.823,79.236 76.378,79.280 76.452 C 79.324 76.526,79.352 76.383,79.342 76.133 C 79.333 75.884,78.865 75.329,78.302 74.900 L 77.280 74.121 78.240 75.219 M98.640 74.781 C 98.948 74.861,99.452 74.861,99.760 74.781 C 100.068 74.700,99.816 74.634,99.200 74.634 C 98.584 74.634,98.332 74.700,98.640 74.781 M229.440 75.040 C 229.440 75.304,229.584 75.520,229.760 75.520 C 229.936 75.520,230.080 75.304,230.080 75.040 C 230.080 74.776,229.936 74.560,229.760 74.560 C 229.584 74.560,229.440 74.776,229.440 75.040 M86.055 76.080 C 86.208 77.185,86.230 77.207,86.335 76.361 C 86.398 75.856,86.324 75.316,86.169 75.161 C 86.008 75.000,85.959 75.392,86.055 76.080 M102.080 76.320 C 102.677 76.936,103.238 77.440,103.326 77.440 C 103.414 77.440,102.997 76.936,102.400 76.320 C 101.803 75.704,101.242 75.200,101.154 75.200 C 101.066 75.200,101.483 75.704,102.080 76.320 M92.000 78.065 C 92.614 78.343,94.328 78.525,94.053 78.282 C 93.980 78.218,93.344 78.077,92.640 77.970 C 91.748 77.834,91.554 77.863,92.000 78.065 M73.562 79.750 C 73.709 80.639,73.754 80.684,73.855 80.043 C 73.921 79.627,73.842 79.154,73.681 78.993 C 73.504 78.816,73.457 79.114,73.562 79.750 M327.480 79.509 C 327.381 79.768,327.374 80.164,327.465 80.389 C 327.555 80.615,327.641 80.488,327.655 80.107 C 327.669 79.725,327.860 79.341,328.080 79.252 C 328.393 79.126,328.391 79.085,328.070 79.065 C 327.844 79.051,327.579 79.251,327.480 79.509 M96.000 80.100 C 96.000 80.155,96.468 80.623,97.040 81.140 L 98.080 82.080 97.140 81.040 C 96.264 80.071,96.000 79.853,96.000 80.100 M229.653 81.493 C 229.536 81.611,229.449 82.007,229.460 82.373 C 229.479 82.986,229.505 82.978,229.787 82.274 C 230.101 81.490,230.036 81.111,229.653 81.493 M105.945 82.453 C 105.931 82.835,105.740 83.219,105.520 83.308 C 105.207 83.434,105.209 83.475,105.530 83.495 C 106.016 83.525,106.369 82.752,106.135 82.171 C 106.045 81.945,105.959 82.072,105.945 82.453 M110.187 82.413 C 110.187 82.668,110.457 83.122,110.787 83.421 C 111.350 83.930,111.375 83.930,111.180 83.422 C 111.065 83.124,110.834 82.880,110.667 82.880 C 110.499 82.880,110.445 82.746,110.546 82.582 C 110.648 82.418,110.608 82.209,110.459 82.116 C 110.309 82.024,110.187 82.157,110.187 82.413 M89.034 83.520 C 89.034 84.136,89.100 84.388,89.181 84.080 C 89.261 83.772,89.261 83.268,89.181 82.960 C 89.100 82.652,89.034 82.904,89.034 83.520 M109.120 85.760 L 107.680 85.984 109.021 86.032 C 109.759 86.058,110.451 85.936,110.560 85.760 C 110.669 85.584,110.713 85.462,110.659 85.488 C 110.604 85.514,109.912 85.637,109.120 85.760 M98.641 86.720 C 98.736 87.073,99.270 87.208,100.665 87.230 L 102.560 87.260 100.807 87.131 C 99.843 87.060,98.932 86.830,98.783 86.621 C 98.593 86.355,98.550 86.385,98.641 86.720 M106.287 87.840 C 106.272 88.192,106.472 88.760,106.730 89.101 C 106.989 89.443,107.200 89.580,107.200 89.405 C 107.200 89.231,107.070 88.951,106.911 88.784 C 106.752 88.617,106.553 88.192,106.468 87.840 L 106.314 87.200 106.287 87.840 M195.638 89.754 C 195.530 90.036,195.531 90.357,195.640 90.467 C 195.750 90.577,195.850 90.391,195.862 90.053 C 195.884 89.467,195.897 89.468,196.160 90.080 C 196.384 90.602,196.439 90.620,196.458 90.179 C 196.488 89.436,195.881 89.121,195.638 89.754 M113.994 90.560 C 113.994 91.176,114.060 91.428,114.141 91.120 C 114.221 90.812,114.221 90.308,114.141 90.000 C 114.060 89.692,113.994 89.944,113.994 90.560 M103.141 90.720 C 103.187 91.178,103.456 91.371,104.087 91.399 C 104.857 91.433,104.870 91.421,104.184 91.300 C 103.752 91.224,103.327 90.918,103.238 90.621 C 103.122 90.231,103.095 90.258,103.141 90.720 M80.267 92.210 C 80.963 93.001,82.460 93.735,82.062 93.090 C 81.963 92.931,81.720 92.800,81.522 92.800 C 81.323 92.800,80.792 92.476,80.341 92.080 L 79.520 91.360 80.267 92.210 M290.115 93.600 C 290.378 94.777,290.562 95.032,290.555 94.213 C 290.552 93.876,290.404 93.384,290.225 93.120 C 289.988 92.769,289.958 92.899,290.115 93.600 M195.638 93.914 C 195.530 94.196,195.531 94.517,195.640 94.627 C 195.750 94.737,195.842 94.551,195.845 94.213 C 195.849 93.700,195.900 93.678,196.160 94.080 C 196.346 94.368,196.472 94.408,196.475 94.179 C 196.483 93.557,195.852 93.357,195.638 93.914 M220.182 98.621 C 220.237 99.635,220.754 100.363,220.778 99.459 C 220.790 98.985,220.656 98.509,220.480 98.400 C 220.304 98.291,220.170 98.391,220.182 98.621 M82.484 99.106 C 82.882 99.183,83.458 99.180,83.764 99.100 C 84.070 99.020,83.744 98.957,83.040 98.961 C 82.336 98.964,82.086 99.030,82.484 99.106 M88.819 100.330 C 88.020 100.934,88.316 100.931,89.483 100.322 C 89.988 100.059,90.184 99.848,89.920 99.852 C 89.656 99.857,89.160 100.072,88.819 100.330 M205.521 101.600 C 205.524 102.304,205.590 102.554,205.666 102.156 C 205.743 101.758,205.740 101.182,205.660 100.876 C 205.580 100.570,205.517 100.896,205.521 101.600 M220.874 102.400 C 220.874 103.016,220.940 103.268,221.021 102.960 C 221.101 102.652,221.101 102.148,221.021 101.840 C 220.940 101.532,220.874 101.784,220.874 102.400 M290.314 102.720 C 290.314 103.336,290.380 103.588,290.461 103.280 C 290.541 102.972,290.541 102.468,290.461 102.160 C 290.380 101.852,290.314 102.104,290.314 102.720 M185.840 102.951 C 186.412 103.022,187.348 103.022,187.920 102.951 C 188.492 102.881,188.024 102.822,186.880 102.822 C 185.736 102.822,185.268 102.881,185.840 102.951 M241.851 102.956 C 242.781 103.021,244.221 103.020,245.051 102.955 C 245.881 102.889,245.120 102.836,243.360 102.837 C 241.600 102.838,240.921 102.891,241.851 102.956 M190.144 108.304 C 190.109 111.287,190.188 113.591,190.320 113.424 C 190.452 113.257,190.481 110.816,190.384 108.000 L 190.208 102.880 190.144 108.304 M187.760 103.914 L 189.120 104.037 189.120 112.640 C 189.120 117.371,189.228 121.309,189.360 121.391 C 189.610 121.546,189.536 104.783,189.283 104.080 C 189.194 103.832,188.620 103.701,187.770 103.736 L 186.400 103.792 187.760 103.914 M292.874 104.960 C 292.874 105.576,292.940 105.828,293.021 105.520 C 293.101 105.212,293.101 104.708,293.021 104.400 C 292.940 104.092,292.874 104.344,292.874 104.960 M205.207 106.880 C 205.207 107.672,205.270 107.996,205.346 107.600 C 205.422 107.204,205.422 106.556,205.346 106.160 C 205.270 105.764,205.207 106.088,205.207 106.880 M220.000 106.240 C 219.880 106.619,219.854 107.000,219.942 107.088 C 220.030 107.176,220.200 106.939,220.320 106.560 C 220.440 106.181,220.466 105.800,220.378 105.712 C 220.290 105.624,220.120 105.861,220.000 106.240 M206.090 107.520 C 206.090 107.784,206.229 108.216,206.400 108.480 C 206.676 108.907,206.710 108.907,206.710 108.480 C 206.710 108.216,206.571 107.784,206.400 107.520 C 206.124 107.093,206.090 107.093,206.090 107.520 M220.554 108.160 C 220.554 108.776,220.620 109.028,220.701 108.720 C 220.781 108.412,220.781 107.908,220.701 107.600 C 220.620 107.292,220.554 107.544,220.554 108.160 M330.314 108.480 C 330.314 109.096,330.380 109.348,330.461 109.040 C 330.541 108.732,330.541 108.228,330.461 107.920 C 330.380 107.612,330.314 107.864,330.314 108.480 M331.274 109.120 C 331.274 109.736,331.340 109.988,331.421 109.680 C 331.501 109.372,331.501 108.868,331.421 108.560 C 331.340 108.252,331.274 108.504,331.274 109.120 M291.862 109.181 C 291.850 109.655,291.984 110.131,292.160 110.240 C 292.542 110.476,292.542 109.849,292.160 108.960 C 291.914 108.389,291.883 108.412,291.862 109.181 M87.120 109.989 C 87.604 110.063,88.396 110.063,88.880 109.989 C 89.364 109.916,88.968 109.856,88.000 109.856 C 87.032 109.856,86.636 109.916,87.120 109.989 M205.841 111.200 C 205.844 111.904,205.910 112.154,205.986 111.756 C 206.063 111.358,206.060 110.782,205.980 110.476 C 205.900 110.170,205.837 110.496,205.841 111.200 M220.874 111.360 C 220.874 111.976,220.940 112.228,221.021 111.920 C 221.101 111.612,221.101 111.108,221.021 110.800 C 220.940 110.492,220.874 110.744,220.874 111.360 M204.887 112.000 C 204.887 112.792,204.950 113.116,205.026 112.720 C 205.102 112.324,205.102 111.676,205.026 111.280 C 204.950 110.884,204.887 111.208,204.887 112.000 M72.400 111.269 C 72.884 111.343,73.676 111.343,74.160 111.269 C 74.644 111.196,74.248 111.136,73.280 111.136 C 72.312 111.136,71.916 111.196,72.400 111.269 M331.594 112.320 C 331.594 112.936,331.660 113.188,331.741 112.880 C 331.821 112.572,331.821 112.068,331.741 111.760 C 331.660 111.452,331.594 111.704,331.594 112.320 M104.148 114.000 L 102.560 115.680 104.240 114.092 C 105.801 112.616,106.067 112.320,105.828 112.320 C 105.777 112.320,105.021 113.076,104.148 114.000 M235.557 114.187 C 235.517 114.988,236.189 115.015,236.404 114.220 C 236.510 113.831,236.481 113.829,236.217 114.206 C 235.962 114.571,235.876 114.541,235.750 114.046 C 235.622 113.549,235.588 113.574,235.557 114.187 M331.914 115.520 C 331.914 116.136,331.980 116.388,332.061 116.080 C 332.141 115.772,332.141 115.268,332.061 114.960 C 331.980 114.652,331.914 114.904,331.914 115.520 M205.521 116.320 C 205.524 117.024,205.590 117.274,205.666 116.876 C 205.743 116.478,205.740 115.902,205.660 115.596 C 205.580 115.290,205.517 115.616,205.521 116.320 M204.567 117.120 C 204.567 117.912,204.630 118.236,204.706 117.840 C 204.782 117.444,204.782 116.796,204.706 116.400 C 204.630 116.004,204.567 116.328,204.567 117.120 M292.554 116.800 C 292.554 117.416,292.620 117.668,292.701 117.360 C 292.781 117.052,292.781 116.548,292.701 116.240 C 292.620 115.932,292.554 116.184,292.554 116.800 M291.877 117.760 C 291.862 118.200,291.989 118.776,292.160 119.040 C 292.555 119.651,292.555 118.993,292.160 117.760 L 291.904 116.960 291.877 117.760 M205.212 121.440 C 205.214 122.320,205.276 122.642,205.350 122.156 C 205.423 121.669,205.421 120.949,205.345 120.556 C 205.269 120.162,205.209 120.560,205.212 121.440 M331.594 121.600 C 331.594 122.216,331.660 122.468,331.741 122.160 C 331.821 121.852,331.821 121.348,331.741 121.040 C 331.660 120.732,331.594 120.984,331.594 121.600 M204.191 121.920 C 204.128 122.857,204.070 122.935,203.840 122.400 C 203.659 121.978,203.559 121.924,203.547 122.240 C 203.525 122.864,204.068 123.719,204.324 123.463 C 204.433 123.354,204.465 122.710,204.395 122.032 L 204.268 120.800 204.191 121.920 M331.914 124.800 C 331.914 125.416,331.980 125.668,332.061 125.360 C 332.141 125.052,332.141 124.548,332.061 124.240 C 331.980 123.932,331.914 124.184,331.914 124.800 M285.120 125.280 C 285.120 125.544,285.264 125.760,285.440 125.760 C 285.616 125.760,285.760 125.544,285.760 125.280 C 285.760 125.016,285.616 124.800,285.440 124.800 C 285.264 124.800,285.120 125.016,285.120 125.280 M204.892 126.560 C 204.894 127.440,204.956 127.762,205.030 127.276 C 205.103 126.789,205.101 126.069,205.025 125.676 C 204.949 125.282,204.889 125.680,204.892 126.560 M204.170 128.960 C 204.170 129.224,204.309 129.656,204.480 129.920 C 204.756 130.347,204.790 130.347,204.790 129.920 C 204.790 129.656,204.651 129.224,204.480 128.960 C 204.204 128.533,204.170 128.533,204.170 128.960 M223.223 132.663 C 223.105 133.132,223.071 133.577,223.146 133.653 C 223.221 133.728,223.379 133.406,223.497 132.937 C 223.615 132.468,223.649 132.023,223.574 131.947 C 223.499 131.872,223.341 132.194,223.223 132.663 M182.798 170.000 L 182.877 199.520 182.960 170.161 L 183.043 140.801 273.362 140.720 L 363.680 140.639 273.200 140.559 L 182.720 140.480 182.798 170.000 M183.827 141.840 C 183.743 142.060,183.713 154.912,183.759 170.400 L 183.844 198.560 183.922 170.160 L 184.000 141.760 273.118 141.760 L 362.237 141.760 362.320 170.160 L 362.404 198.560 362.482 170.000 L 362.560 141.440 273.270 141.440 C 202.133 141.440,183.949 141.521,183.827 141.840 M250.714 150.419 C 250.597 150.787,250.587 151.173,250.691 151.277 C 250.795 151.382,250.880 151.218,250.880 150.914 C 250.880 150.611,251.024 150.451,251.200 150.560 C 251.376 150.669,251.520 150.614,251.520 150.438 C 251.520 149.787,250.919 149.773,250.714 150.419 M347.387 156.366 C 347.276 156.655,347.260 156.967,347.352 157.059 C 347.445 157.151,347.551 157.023,347.590 156.773 C 347.628 156.524,347.736 159.272,347.830 162.880 L 348.000 169.440 348.800 169.492 C 349.505 169.539,349.514 169.526,348.880 169.390 C 348.161 169.236,348.160 169.224,348.160 162.538 C 348.160 156.450,347.962 154.867,347.387 156.366 M346.880 165.199 L 347.040 170.400 351.760 170.413 L 356.481 170.427 351.840 170.325 L 347.200 170.223 347.200 165.111 C 347.200 162.300,347.092 160.000,346.960 159.999 C 346.828 159.999,346.792 162.339,346.880 165.199 M282.536 171.440 L 281.760 172.320 282.584 171.597 C 283.037 171.199,283.528 170.983,283.675 171.117 C 283.822 171.251,283.839 171.180,283.712 170.960 C 283.409 170.433,283.431 170.425,282.536 171.440 " stroke="none" fill="#d4ed17" fill-rule="evenodd"></path><path id="path4" d="M72.880 15.271 C 73.452 15.342,74.388 15.342,74.960 15.271 C 75.532 15.201,75.064 15.142,73.920 15.142 C 72.776 15.142,72.308 15.201,72.880 15.271 M75.134 63.200 C 70.571 63.968,65.661 65.932,63.429 67.882 C 62.851 68.387,62.144 68.800,61.858 68.800 C 59.575 68.800,53.111 75.880,52.772 78.752 C 52.506 81.011,51.944 81.954,50.087 83.263 C 47.226 85.280,45.350 94.963,46.422 102.179 C 49.574 123.403,70.284 133.886,89.920 124.197 C 103.766 117.365,117.979 100.211,118.057 90.240 C 118.092 85.664,112.959 75.200,110.678 75.200 C 110.506 75.200,109.460 74.300,108.354 73.200 C 105.743 70.603,101.597 68.137,99.219 67.768 C 97.502 67.501,95.040 66.229,95.040 65.609 C 95.040 64.604,85.883 62.710,83.898 63.305 C 82.201 63.813,80.530 63.776,79.151 63.200 C 78.519 62.936,77.911 62.735,77.801 62.753 C 77.690 62.771,76.490 62.972,75.134 63.200 M173.048 63.219 C 172.568 63.479,172.028 63.968,171.848 64.305 C 171.627 64.718,171.520 87.580,171.520 134.479 L 171.520 204.040 172.501 204.980 L 173.482 205.920 271.868 206.002 C 379.710 206.091,371.889 206.231,372.941 204.197 C 373.395 203.319,373.436 196.432,373.362 133.905 L 373.280 64.587 372.235 63.654 L 371.190 62.720 272.555 62.733 C 186.133 62.744,173.812 62.804,173.048 63.219 M87.983 68.173 C 92.455 68.716,94.727 69.371,97.120 70.808 C 98.352 71.547,100.343 72.634,101.545 73.222 C 106.041 75.424,113.280 83.804,113.280 86.808 C 113.280 87.244,113.496 88.119,113.760 88.751 C 114.461 90.429,114.354 91.367,113.324 92.549 C 112.821 93.127,112.185 94.032,111.912 94.560 C 110.753 96.798,106.071 99.947,103.346 100.322 C 101.423 100.586,100.160 101.585,100.160 102.841 C 100.160 103.887,98.883 105.357,96.677 106.852 C 92.336 109.794,89.391 110.518,85.158 109.684 L 82.556 109.172 80.975 110.826 C 79.916 111.933,78.642 113.931,77.120 116.870 C 74.760 121.427,73.803 122.560,72.316 122.560 C 70.693 122.560,70.458 121.651,71.199 118.240 L 71.408 117.280 66.984 117.280 C 60.650 117.280,58.155 115.962,56.765 111.882 C 56.374 110.735,56.066 110.350,55.409 110.193 C 47.828 108.374,45.402 97.284,50.410 87.339 C 51.012 86.145,51.668 85.066,51.868 84.943 C 52.068 84.819,52.588 83.909,53.025 82.919 C 53.488 81.868,54.637 80.254,55.789 79.036 C 56.873 77.889,58.177 76.374,58.688 75.667 C 60.064 73.762,62.011 72.417,64.944 71.347 C 66.385 70.821,68.140 70.096,68.846 69.737 C 69.590 69.357,71.302 68.951,72.920 68.771 C 74.456 68.599,76.137 68.332,76.656 68.177 C 77.987 67.779,84.727 67.777,87.983 68.173 M83.840 70.187 C 83.840 70.421,83.948 70.721,84.080 70.853 C 84.318 71.091,84.362 71.251,84.440 72.137 C 84.462 72.389,84.727 72.841,85.028 73.142 C 85.329 73.443,85.607 73.905,85.646 74.167 C 85.684 74.429,85.870 74.798,86.058 74.986 C 86.942 75.870,86.109 81.036,84.901 82.160 C 83.252 83.694,82.701 83.205,82.831 80.322 L 82.948 77.764 81.442 76.242 C 80.615 75.405,79.669 74.198,79.342 73.559 C 78.777 72.458,78.167 71.987,77.334 72.011 C 77.128 72.017,77.274 72.284,77.658 72.604 C 78.278 73.122,78.303 73.240,77.876 73.667 C 77.450 74.093,77.506 74.238,78.378 74.973 C 79.073 75.557,79.360 76.080,79.360 76.760 C 79.360 77.289,79.468 77.789,79.600 77.871 C 79.894 78.052,79.850 80.159,79.527 81.360 C 79.373 81.933,79.414 82.240,79.645 82.240 C 79.840 82.240,80.000 82.434,80.000 82.670 C 80.000 83.381,81.182 84.228,82.306 84.322 C 82.886 84.370,83.432 84.441,83.520 84.479 C 83.608 84.517,84.082 84.521,84.574 84.488 C 85.260 84.443,85.736 84.735,86.618 85.740 C 88.777 88.203,92.494 88.517,92.947 86.274 C 94.118 80.484,95.572 79.111,95.832 83.552 C 95.898 84.678,96.118 86.032,96.322 86.560 L 96.692 87.520 97.116 86.299 C 97.349 85.627,97.786 84.805,98.088 84.472 C 98.865 83.613,98.517 82.645,96.841 81.000 C 94.727 78.925,93.041 79.145,92.606 81.552 C 92.490 82.194,92.194 83.116,91.949 83.600 C 91.704 84.084,91.602 84.480,91.721 84.480 C 92.225 84.480,90.742 85.746,89.889 86.043 L 88.960 86.367 88.960 84.799 C 88.960 83.937,89.117 82.500,89.308 81.607 C 89.848 79.090,88.800 75.970,86.715 73.885 C 85.855 73.024,85.353 72.320,85.600 72.320 C 85.848 72.320,86.419 72.152,86.869 71.947 L 87.689 71.573 86.324 70.668 C 84.859 69.696,83.840 69.498,83.840 70.187 M88.441 70.144 C 88.130 70.647,89.782 71.089,91.630 70.997 C 93.337 70.911,93.899 71.044,95.840 71.995 C 97.072 72.598,98.224 73.153,98.400 73.230 C 98.576 73.306,98.388 73.006,97.982 72.565 C 96.417 70.860,89.139 69.013,88.441 70.144 M76.800 70.389 C 76.800 70.725,77.832 71.360,78.379 71.360 C 78.911 71.360,78.779 70.491,78.214 70.274 C 77.461 69.985,76.800 70.039,76.800 70.389 M248.320 103.200 L 248.320 136.000 215.520 136.000 L 182.720 136.000 182.720 103.200 L 182.720 70.400 215.520 70.400 L 248.320 70.400 248.320 103.200 M363.520 103.200 L 363.520 136.000 309.440 136.000 L 255.360 136.000 255.360 103.200 L 255.360 70.400 309.440 70.400 L 363.520 70.400 363.520 103.200 M71.340 71.864 C 70.864 72.437,71.362 72.946,72.407 72.955 C 72.939 72.960,72.942 72.910,72.451 72.160 C 71.831 71.214,71.870 71.225,71.340 71.864 M247.118 103.118 L 247.040 134.717 215.440 134.800 L 183.840 134.883 215.450 134.962 C 240.501 135.024,247.092 134.957,247.213 134.640 C 247.296 134.420,247.327 120.128,247.281 102.880 L 247.197 71.520 247.118 103.118 M89.990 72.290 C 89.598 72.550,89.286 73.884,89.492 74.420 C 89.623 74.762,90.077 74.649,91.541 73.909 C 93.704 72.818,94.400 72.725,94.400 73.531 C 94.400 73.845,94.814 74.347,95.320 74.645 C 95.977 75.034,96.240 75.439,96.240 76.066 C 96.240 76.683,96.599 77.253,97.453 77.991 C 98.996 79.325,99.146 79.309,99.754 77.760 C 100.620 75.555,101.882 76.942,101.171 79.316 C 100.566 81.334,101.196 82.982,103.120 84.418 C 103.862 84.972,103.873 85.903,103.134 85.619 C 101.661 85.054,99.821 85.038,99.216 85.586 C 98.226 86.482,98.739 87.036,100.594 87.072 C 101.499 87.089,102.600 87.208,103.040 87.334 L 103.840 87.565 102.776 88.574 C 101.675 89.617,101.661 90.240,102.739 90.240 C 103.080 90.240,103.360 90.456,103.360 90.720 C 103.360 90.984,103.621 91.200,103.940 91.200 C 104.423 91.200,104.523 90.927,104.534 89.583 C 104.545 88.213,104.701 87.808,105.554 86.928 C 106.107 86.357,106.560 85.723,106.560 85.520 C 106.560 84.774,107.316 83.520,107.766 83.520 C 108.083 83.520,108.154 83.696,107.993 84.080 C 107.255 85.836,107.353 85.987,109.088 85.764 C 111.635 85.437,111.461 84.382,108.557 82.540 C 106.727 81.379,106.310 81.365,106.181 82.455 C 106.016 83.854,105.280 83.766,105.277 82.347 C 105.269 79.164,101.698 74.880,99.054 74.880 C 97.800 74.880,97.600 74.789,97.600 74.222 C 97.600 72.974,91.349 71.387,89.990 72.290 M100.336 73.863 C 101.600 74.956,103.418 76.209,103.550 76.077 C 103.797 75.829,101.069 73.600,100.518 73.600 C 100.231 73.600,100.156 73.708,100.336 73.863 M72.464 75.120 C 72.720 76.548,73.313 78.421,73.667 78.913 C 73.806 79.107,74.011 80.344,74.123 81.663 C 74.324 84.042,74.981 85.171,75.853 84.632 C 76.342 84.330,76.208 80.279,75.647 78.387 C 74.646 75.017,71.949 72.249,72.464 75.120 M229.260 74.687 C 229.154 75.110,229.131 75.794,229.210 76.207 C 229.306 76.713,229.367 76.566,229.396 75.760 C 229.420 75.100,229.584 74.560,229.760 74.560 C 229.936 74.560,230.080 74.416,230.080 74.240 C 230.080 73.597,229.447 73.942,229.260 74.687 M92.731 74.800 C 91.202 76.552,91.175 77.666,92.655 77.944 C 94.130 78.221,94.198 78.117,93.936 76.015 C 93.699 74.117,93.501 73.917,92.731 74.800 M68.800 76.080 C 68.800 76.279,68.920 76.516,69.067 76.607 C 69.213 76.698,69.271 77.193,69.196 77.708 C 69.120 78.223,69.216 78.742,69.409 78.861 C 69.943 79.191,69.826 77.074,69.270 76.339 C 69.011 75.997,68.800 75.881,68.800 76.080 M103.716 76.640 C 104.052 77.507,105.472 79.675,105.706 79.678 C 105.938 79.680,107.130 80.447,110.073 82.489 L 110.867 83.040 110.110 81.969 C 109.063 80.489,106.538 78.114,105.762 77.880 C 105.409 77.774,104.776 77.379,104.356 77.003 C 103.936 76.627,103.648 76.464,103.716 76.640 M228.554 80.640 C 228.554 81.256,228.620 81.508,228.701 81.200 C 228.781 80.892,228.781 80.388,228.701 80.080 C 228.620 79.772,228.554 80.024,228.554 80.640 M62.111 82.397 C 62.267 83.230,62.310 84.047,62.207 84.214 C 62.104 84.380,62.122 84.904,62.247 85.378 C 62.450 86.150,62.524 86.044,62.952 84.362 C 63.427 82.496,63.425 82.480,62.629 81.684 L 61.828 80.883 62.111 82.397 M69.504 81.664 C 68.887 82.281,69.043 82.415,70.384 82.415 C 71.573 82.415,71.617 82.381,71.134 81.847 C 70.534 81.184,70.039 81.129,69.504 81.664 M229.623 82.743 C 229.505 83.212,229.481 83.668,229.569 83.756 C 229.657 83.844,229.825 83.532,229.943 83.063 C 230.061 82.594,230.085 82.138,229.997 82.050 C 229.909 81.962,229.741 82.274,229.623 82.743 M228.234 83.520 C 228.234 84.136,228.300 84.388,228.381 84.080 C 228.461 83.772,228.461 83.268,228.381 82.960 C 228.300 82.652,228.234 82.904,228.234 83.520 M306.027 85.257 C 306.228 85.684,306.444 85.983,306.506 85.921 C 306.704 85.722,306.207 84.480,305.929 84.480 C 305.781 84.480,305.825 84.830,306.027 85.257 M353.355 94.000 L 353.280 103.040 355.600 102.977 L 357.920 102.915 355.765 102.803 L 353.610 102.691 353.520 93.825 L 353.429 84.960 353.355 94.000 M327.879 86.024 C 327.737 86.433,327.707 86.853,327.811 86.957 C 328.142 87.289,328.376 86.800,328.254 86.027 L 328.136 85.280 327.879 86.024 M67.697 87.120 C 67.826 87.868,67.915 88.942,67.896 89.507 C 67.862 90.485,68.504 91.520,69.143 91.520 C 69.306 91.520,69.440 91.227,69.440 90.870 C 69.440 90.512,69.642 90.142,69.888 90.048 C 70.886 89.665,70.698 88.601,69.377 87.169 C 67.739 85.392,67.399 85.382,67.697 87.120 M329.354 87.360 C 329.354 87.976,329.420 88.228,329.501 87.920 C 329.581 87.612,329.581 87.108,329.501 86.800 C 329.420 86.492,329.354 86.744,329.354 87.360 M294.474 87.680 C 294.474 88.296,294.540 88.548,294.621 88.240 C 294.701 87.932,294.701 87.428,294.621 87.120 C 294.540 86.812,294.474 87.064,294.474 87.680 M106.570 87.760 C 106.582 88.617,107.051 89.251,108.229 90.004 C 110.035 91.160,110.375 90.003,108.767 88.171 C 107.614 86.859,106.555 86.660,106.570 87.760 M326.474 88.000 C 326.474 88.616,326.540 88.868,326.621 88.560 C 326.701 88.252,326.701 87.748,326.621 87.440 C 326.540 87.132,326.474 87.384,326.474 88.000 M110.145 87.625 C 109.814 87.842,109.845 88.096,110.301 88.891 C 110.970 90.057,111.960 90.418,112.635 89.742 C 113.713 88.664,111.472 86.758,110.145 87.625 M227.594 88.640 C 227.594 89.256,227.660 89.508,227.741 89.200 C 227.821 88.892,227.821 88.388,227.741 88.080 C 227.660 87.772,227.594 88.024,227.594 88.640 M213.022 88.204 C 212.681 88.546,212.759 89.023,213.120 88.800 C 213.296 88.691,213.457 88.935,213.477 89.341 C 213.504 89.867,213.556 89.921,213.659 89.530 C 213.828 88.885,213.346 87.881,213.022 88.204 M275.053 88.619 C 274.931 88.816,275.040 88.878,275.318 88.772 C 275.607 88.661,275.842 88.817,275.926 89.176 C 276.048 89.697,276.060 89.694,276.031 89.145 C 275.996 88.451,275.366 88.113,275.053 88.619 M78.160 89.172 C 77.940 89.261,77.760 89.474,77.760 89.646 C 77.760 89.817,77.904 89.869,78.080 89.760 C 78.256 89.651,78.400 89.769,78.400 90.023 C 78.400 90.512,81.001 92.800,81.558 92.800 C 81.740 92.800,82.003 92.981,82.144 93.203 C 82.530 93.809,85.712 95.427,86.077 95.202 C 86.252 95.094,86.648 95.147,86.957 95.320 C 87.364 95.548,87.672 95.497,88.073 95.134 C 88.660 94.603,94.616 95.405,95.071 96.077 C 95.176 96.232,95.896 96.544,96.671 96.772 C 97.446 96.999,98.224 97.458,98.400 97.792 C 98.788 98.528,99.953 98.597,100.089 97.892 C 100.207 97.280,97.449 94.514,95.087 92.876 C 93.050 91.464,89.269 91.145,87.591 92.244 C 86.698 92.829,85.440 92.993,85.440 92.524 C 85.440 91.590,79.838 88.669,78.655 88.985 C 78.603 88.999,78.380 89.083,78.160 89.172 M294.154 90.560 C 294.154 91.176,294.220 91.428,294.301 91.120 C 294.381 90.812,294.381 90.308,294.301 90.000 C 294.220 89.692,294.154 89.944,294.154 90.560 M329.681 90.720 C 329.684 91.424,329.750 91.674,329.826 91.276 C 329.903 90.878,329.900 90.302,329.820 89.996 C 329.740 89.690,329.677 90.016,329.681 90.720 M321.965 90.240 C 321.965 90.504,322.089 91.008,322.240 91.360 C 322.413 91.763,322.515 91.823,322.515 91.520 C 322.515 91.256,322.391 90.752,322.240 90.400 C 322.067 89.997,321.965 89.937,321.965 90.240 M326.154 90.880 C 326.154 91.496,326.220 91.748,326.301 91.440 C 326.381 91.132,326.381 90.628,326.301 90.320 C 326.220 90.012,326.154 90.264,326.154 90.880 M293.841 93.600 C 293.844 94.304,293.910 94.554,293.986 94.156 C 294.063 93.758,294.060 93.182,293.980 92.876 C 293.900 92.570,293.837 92.896,293.841 93.600 M330.001 93.600 C 330.004 94.304,330.070 94.554,330.146 94.156 C 330.223 93.758,330.220 93.182,330.140 92.876 C 330.060 92.570,329.997 92.896,330.001 93.600 M325.841 93.920 C 325.844 94.624,325.910 94.874,325.986 94.476 C 326.063 94.078,326.060 93.502,325.980 93.196 C 325.900 92.890,325.837 93.216,325.841 93.920 M196.035 94.560 C 196.298 95.737,196.482 95.992,196.475 95.173 C 196.472 94.836,196.324 94.344,196.145 94.080 C 195.908 93.729,195.878 93.859,196.035 94.560 M290.634 95.360 C 290.634 95.976,290.700 96.228,290.781 95.920 C 290.861 95.612,290.861 95.108,290.781 94.800 C 290.700 94.492,290.634 94.744,290.634 95.360 M212.962 95.357 C 212.854 95.532,212.913 95.928,213.093 96.237 C 213.374 96.720,213.422 96.675,213.430 95.920 C 213.440 95.000,213.292 94.822,212.962 95.357 M227.914 96.640 C 227.914 97.256,227.980 97.508,228.061 97.200 C 228.141 96.892,228.141 96.388,228.061 96.080 C 227.980 95.772,227.914 96.024,227.914 96.640 M293.521 96.800 C 293.524 97.504,293.590 97.754,293.666 97.356 C 293.743 96.958,293.740 96.382,293.660 96.076 C 293.580 95.770,293.517 96.096,293.521 96.800 M325.521 96.800 C 325.524 97.504,325.590 97.754,325.666 97.356 C 325.743 96.958,325.740 96.382,325.660 96.076 C 325.580 95.770,325.517 96.096,325.521 96.800 M330.327 96.960 C 330.327 97.752,330.390 98.076,330.466 97.680 C 330.542 97.284,330.542 96.636,330.466 96.240 C 330.390 95.844,330.327 96.168,330.327 96.960 M290.961 98.400 C 290.964 99.104,291.030 99.354,291.106 98.956 C 291.183 98.558,291.180 97.982,291.100 97.676 C 291.020 97.370,290.957 97.696,290.961 98.400 M338.240 97.881 C 338.240 98.078,338.374 98.240,338.538 98.240 C 338.702 98.240,338.898 98.564,338.974 98.960 C 339.107 99.650,339.115 99.651,339.156 98.999 C 339.180 98.625,338.984 98.139,338.720 97.920 C 338.388 97.645,338.240 97.633,338.240 97.881 M76.662 98.524 C 76.446 98.874,77.656 99.220,78.271 98.984 C 78.518 98.889,78.720 98.683,78.720 98.526 C 78.720 98.155,76.892 98.153,76.662 98.524 M227.594 99.200 C 227.594 99.816,227.660 100.068,227.741 99.760 C 227.821 99.452,227.821 98.948,227.741 98.640 C 227.660 98.332,227.594 98.584,227.594 99.200 M205.563 99.021 C 205.466 99.275,205.442 99.743,205.511 100.061 C 205.589 100.423,205.699 100.249,205.803 99.600 C 205.977 98.510,205.864 98.237,205.563 99.021 M293.201 100.000 C 293.204 100.704,293.270 100.954,293.346 100.556 C 293.423 100.158,293.420 99.582,293.340 99.276 C 293.260 98.970,293.197 99.296,293.201 100.000 M325.063 99.680 C 324.857 100.639,324.956 101.070,325.304 100.723 C 325.405 100.621,325.439 100.129,325.379 99.629 L 325.270 98.720 325.063 99.680 M81.920 99.427 C 82.184 99.524,83.004 99.872,83.742 100.201 C 84.481 100.531,85.513 100.800,86.036 100.800 C 86.559 100.800,87.035 100.945,87.094 101.123 C 87.241 101.562,88.581 101.794,88.812 101.420 C 89.135 100.897,90.093 101.091,92.035 102.074 C 94.090 103.113,94.651 102.838,93.635 101.288 C 93.054 100.402,89.843 99.789,89.192 100.440 C 88.659 100.973,88.320 100.878,88.320 100.194 C 88.320 99.344,87.719 99.196,84.374 99.225 C 82.760 99.239,81.656 99.330,81.920 99.427 M330.641 100.320 C 330.644 101.024,330.710 101.274,330.786 100.876 C 330.863 100.478,330.860 99.902,330.780 99.596 C 330.700 99.290,330.637 99.616,330.641 100.320 M291.281 101.280 C 291.284 101.984,291.350 102.234,291.426 101.836 C 291.503 101.438,291.500 100.862,291.420 100.556 C 291.340 100.250,291.277 100.576,291.281 101.280 M227.274 101.760 C 227.274 102.376,227.340 102.628,227.421 102.320 C 227.501 102.012,227.501 101.508,227.421 101.200 C 227.340 100.892,227.274 101.144,227.274 101.760 M289.742 102.222 C 289.622 102.864,289.595 103.462,289.683 103.550 C 289.771 103.638,289.942 103.184,290.062 102.542 C 290.183 101.900,290.209 101.303,290.121 101.215 C 290.033 101.127,289.863 101.580,289.742 102.222 M315.403 101.656 C 315.603 101.801,315.845 102.208,315.942 102.560 C 316.081 103.065,316.106 103.036,316.059 102.425 C 316.027 101.999,315.784 101.592,315.520 101.521 C 315.203 101.435,315.163 101.481,315.403 101.656 M205.222 103.680 C 205.222 104.824,205.281 105.292,205.351 104.720 C 205.422 104.148,205.422 103.212,205.351 102.640 C 205.281 102.068,205.222 102.536,205.222 103.680 M292.881 102.880 C 292.884 103.584,292.950 103.834,293.026 103.436 C 293.103 103.038,293.100 102.462,293.020 102.156 C 292.940 101.850,292.877 102.176,292.881 102.880 M330.967 103.680 C 330.967 104.472,331.030 104.796,331.106 104.400 C 331.182 104.004,331.182 103.356,331.106 102.960 C 331.030 102.564,330.967 102.888,330.967 103.680 M184.741 103.200 C 184.787 103.658,185.056 103.851,185.687 103.879 C 186.457 103.913,186.470 103.901,185.784 103.780 C 185.352 103.704,184.927 103.398,184.838 103.101 C 184.722 102.711,184.695 102.738,184.741 103.200 M221.194 103.680 C 221.194 104.296,221.260 104.548,221.341 104.240 C 221.421 103.932,221.421 103.428,221.341 103.120 C 221.260 102.812,221.194 103.064,221.194 103.680 M246.400 103.134 C 246.400 103.568,245.930 103.673,243.600 103.762 L 240.800 103.868 243.610 103.934 C 246.317 103.998,247.384 103.597,246.600 102.813 C 246.490 102.703,246.400 102.848,246.400 103.134 M257.382 103.520 C 257.445 104.128,257.688 104.161,262.324 104.173 L 267.201 104.186 262.422 104.085 C 258.228 103.996,257.624 103.916,257.480 103.432 C 257.357 103.016,257.333 103.038,257.382 103.520 M338.453 103.253 C 338.336 103.371,338.249 103.767,338.260 104.133 C 338.279 104.746,338.305 104.738,338.587 104.034 C 338.901 103.250,338.836 102.871,338.453 103.253 M360.640 103.453 C 360.640 103.879,360.191 103.993,358.160 104.082 L 355.680 104.191 358.170 104.256 C 360.559 104.317,361.590 103.884,360.840 103.133 C 360.730 103.023,360.640 103.167,360.640 103.453 M291.601 104.480 C 291.604 105.184,291.670 105.434,291.746 105.036 C 291.823 104.638,291.820 104.062,291.740 103.756 C 291.660 103.450,291.597 103.776,291.601 104.480 M226.954 104.640 C 226.954 105.256,227.020 105.508,227.101 105.200 C 227.181 104.892,227.181 104.388,227.101 104.080 C 227.020 103.772,226.954 104.024,226.954 104.640 M325.792 105.760 C 325.760 106.504,325.680 106.612,325.440 106.240 C 325.254 105.952,325.128 105.912,325.125 106.141 C 325.122 106.351,325.265 106.612,325.442 106.721 C 325.848 106.972,326.183 106.144,325.984 105.379 C 325.893 105.028,325.818 105.178,325.792 105.760 M282.634 106.240 C 282.634 106.856,282.700 107.108,282.781 106.800 C 282.861 106.492,282.861 105.988,282.781 105.680 C 282.700 105.372,282.634 105.624,282.634 106.240 M292.554 106.240 C 292.554 106.856,292.620 107.108,292.701 106.800 C 292.781 106.492,292.781 105.988,292.701 105.680 C 292.620 105.372,292.554 105.624,292.554 106.240 M314.604 106.112 C 314.390 106.580,314.280 107.027,314.359 107.105 C 314.437 107.184,314.612 106.913,314.747 106.504 L 314.993 105.760 315.225 106.560 C 315.412 107.206,315.461 107.237,315.483 106.720 C 315.533 105.535,315.026 105.184,314.604 106.112 M344.037 106.000 C 344.065 106.548,344.109 106.585,344.221 106.156 C 344.302 105.846,344.524 105.688,344.714 105.806 C 344.919 105.932,344.966 105.869,344.831 105.649 C 344.450 105.034,343.998 105.234,344.037 106.000 M331.287 106.880 C 331.287 107.672,331.350 107.996,331.426 107.600 C 331.502 107.204,331.502 106.556,331.426 106.160 C 331.350 105.764,331.287 106.088,331.287 106.880 M226.634 107.200 C 226.634 107.816,226.700 108.068,226.781 107.760 C 226.861 107.452,226.861 106.948,226.781 106.640 C 226.700 106.332,226.634 106.584,226.634 107.200 M220.071 106.986 C 219.944 107.309,219.849 107.885,219.860 108.266 C 219.880 108.925,219.896 108.920,220.192 108.180 C 220.364 107.751,220.458 107.175,220.402 106.900 C 220.319 106.489,220.260 106.504,220.071 106.986 M291.900 107.360 C 291.892 107.888,292.009 108.608,292.160 108.960 L 292.435 109.600 292.420 108.960 C 292.411 108.608,292.294 107.888,292.160 107.360 L 291.916 106.400 291.900 107.360 M204.899 108.960 C 204.901 110.016,204.961 110.409,205.032 109.834 C 205.103 109.259,205.102 108.395,205.029 107.914 C 204.956 107.433,204.897 107.904,204.899 108.960 M206.085 108.701 C 206.082 109.087,206.224 109.491,206.400 109.600 C 206.807 109.852,206.807 109.110,206.400 108.480 C 206.148 108.090,206.089 108.131,206.085 108.701 M220.561 110.240 C 220.564 110.944,220.630 111.194,220.706 110.796 C 220.783 110.398,220.780 109.822,220.700 109.516 C 220.620 109.210,220.557 109.536,220.561 110.240 M331.601 110.240 C 331.604 110.944,331.670 111.194,331.746 110.796 C 331.823 110.398,331.820 109.822,331.740 109.516 C 331.660 109.210,331.597 109.536,331.601 110.240 M290.954 110.720 C 290.954 111.336,291.020 111.588,291.101 111.280 C 291.181 110.972,291.181 110.468,291.101 110.160 C 291.020 109.852,290.954 110.104,290.954 110.720 M317.125 110.480 C 317.136 111.393,317.750 111.861,317.755 110.960 C 317.758 110.476,317.616 110.080,317.440 110.080 C 317.264 110.080,317.122 110.260,317.125 110.480 M341.944 111.254 C 341.831 111.547,341.888 111.936,342.070 112.118 C 342.297 112.345,342.400 112.178,342.400 111.584 C 342.400 110.597,342.240 110.481,341.944 111.254 M225.994 112.320 C 225.994 112.936,226.060 113.188,226.141 112.880 C 226.221 112.572,226.221 112.068,226.141 111.760 C 226.060 111.452,225.994 111.704,225.994 112.320 M293.194 112.320 C 293.194 112.936,293.260 113.188,293.341 112.880 C 293.421 112.572,293.421 112.068,293.341 111.760 C 293.260 111.452,293.194 111.704,293.194 112.320 M72.320 112.396 L 71.520 112.751 72.263 112.881 C 73.157 113.037,73.920 112.783,73.920 112.330 C 73.920 111.915,73.350 111.938,72.320 112.396 M204.579 114.080 C 204.581 115.136,204.641 115.529,204.712 114.954 C 204.783 114.379,204.782 113.515,204.709 113.034 C 204.636 112.553,204.577 113.024,204.579 114.080 M205.841 113.440 C 205.844 114.144,205.910 114.394,205.986 113.996 C 206.063 113.598,206.060 113.022,205.980 112.716 C 205.900 112.410,205.837 112.736,205.841 113.440 M220.881 113.440 C 220.884 114.144,220.950 114.394,221.026 113.996 C 221.103 113.598,221.100 113.022,221.020 112.716 C 220.940 112.410,220.877 112.736,220.881 113.440 M291.274 113.600 C 291.274 114.216,291.340 114.468,291.421 114.160 C 291.501 113.852,291.501 113.348,291.421 113.040 C 291.340 112.732,291.274 112.984,291.274 113.600 M331.914 113.600 C 331.914 114.216,331.980 114.468,332.061 114.160 C 332.141 113.852,332.141 113.348,332.061 113.040 C 331.980 112.732,331.914 112.984,331.914 113.600 M225.674 114.880 C 225.674 115.496,225.740 115.748,225.821 115.440 C 225.901 115.132,225.901 114.628,225.821 114.320 C 225.740 114.012,225.674 114.264,225.674 114.880 M217.499 114.682 C 217.378 114.996,217.289 115.493,217.300 115.786 C 217.314 116.140,217.425 116.059,217.629 115.547 C 217.799 115.122,217.889 114.626,217.828 114.444 C 217.767 114.261,217.619 114.369,217.499 114.682 M221.201 116.320 C 221.204 117.024,221.270 117.274,221.346 116.876 C 221.423 116.478,221.420 115.902,221.340 115.596 C 221.260 115.290,221.197 115.616,221.201 116.320 M330.954 116.800 C 330.954 117.416,331.020 117.668,331.101 117.360 C 331.181 117.052,331.181 116.548,331.101 116.240 C 331.020 115.932,330.954 116.184,330.954 116.800 M332.241 116.960 C 332.244 117.664,332.310 117.914,332.386 117.516 C 332.463 117.118,332.460 116.542,332.380 116.236 C 332.300 115.930,332.237 116.256,332.241 116.960 M204.262 119.040 C 204.262 120.184,204.321 120.652,204.391 120.080 C 204.462 119.508,204.462 118.572,204.391 118.000 C 204.321 117.428,204.262 117.896,204.262 119.040 M317.792 117.760 C 317.759 118.399,317.688 118.463,317.440 118.080 C 317.173 117.666,317.129 117.675,317.125 118.141 C 317.122 118.439,317.265 118.772,317.442 118.881 C 317.848 119.132,318.183 118.304,317.984 117.539 C 317.876 117.121,317.823 117.182,317.792 117.760 M205.532 118.880 C 205.534 119.760,205.596 120.082,205.670 119.596 C 205.743 119.109,205.741 118.389,205.665 117.996 C 205.589 117.602,205.529 118.000,205.532 118.880 M292.512 118.560 C 292.480 119.304,292.400 119.412,292.160 119.040 C 291.908 118.650,291.849 118.691,291.845 119.261 C 291.842 119.647,291.980 120.049,292.151 120.154 C 292.526 120.386,292.916 119.002,292.705 118.185 C 292.612 117.823,292.538 117.965,292.512 118.560 M221.521 119.520 C 221.524 120.224,221.590 120.474,221.666 120.076 C 221.743 119.678,221.740 119.102,221.660 118.796 C 221.580 118.490,221.517 118.816,221.521 119.520 M331.274 120.000 C 331.274 120.616,331.340 120.868,331.421 120.560 C 331.501 120.252,331.501 119.748,331.421 119.440 C 331.340 119.132,331.274 119.384,331.274 120.000 M332.554 120.320 C 332.554 120.936,332.620 121.188,332.701 120.880 C 332.781 120.572,332.781 120.068,332.701 119.760 C 332.620 119.452,332.554 119.704,332.554 120.320 M203.565 121.280 C 203.565 121.544,203.689 122.048,203.840 122.400 C 204.013 122.803,204.115 122.863,204.115 122.560 C 204.115 122.296,203.991 121.792,203.840 121.440 C 203.667 121.037,203.565 120.977,203.565 121.280 M189.120 121.920 C 189.120 122.517,189.205 122.603,189.504 122.304 C 189.803 122.005,189.803 121.835,189.504 121.536 C 189.205 121.237,189.120 121.323,189.120 121.920 M221.841 122.720 C 221.844 123.424,221.910 123.674,221.986 123.276 C 222.063 122.878,222.060 122.302,221.980 121.996 C 221.900 121.690,221.837 122.016,221.841 122.720 M223.045 123.280 C 223.042 123.764,223.184 124.160,223.360 124.160 C 223.765 124.160,223.765 123.506,223.360 122.880 C 223.118 122.506,223.049 122.594,223.045 123.280 M331.594 123.520 C 331.594 124.136,331.660 124.388,331.741 124.080 C 331.821 123.772,331.821 123.268,331.741 122.960 C 331.660 122.652,331.594 122.904,331.594 123.520 M332.970 122.974 C 332.833 123.289,332.811 123.637,332.920 123.747 C 333.245 124.072,333.507 123.616,333.358 122.985 C 333.225 122.426,333.208 122.426,332.970 122.974 M205.207 124.160 C 205.207 124.952,205.270 125.276,205.346 124.880 C 205.422 124.484,205.422 123.836,205.346 123.440 C 205.270 123.044,205.207 123.368,205.207 124.160 M285.319 123.784 C 285.177 124.193,285.147 124.613,285.251 124.717 C 285.582 125.049,285.816 124.560,285.694 123.787 L 285.576 123.040 285.319 123.784 M222.154 125.760 C 222.154 126.376,222.220 126.628,222.301 126.320 C 222.381 126.012,222.381 125.508,222.301 125.200 C 222.220 124.892,222.154 125.144,222.154 125.760 M331.921 126.880 C 331.924 127.584,331.990 127.834,332.066 127.436 C 332.143 127.038,332.140 126.462,332.060 126.156 C 331.980 125.850,331.917 126.176,331.921 126.880 M222.481 128.800 C 222.484 129.504,222.550 129.754,222.626 129.356 C 222.703 128.958,222.700 128.382,222.620 128.076 C 222.540 127.770,222.477 128.096,222.481 128.800 M204.843 129.120 C 204.804 130.075,204.711 130.278,204.480 129.920 C 204.215 129.510,204.169 129.521,204.165 130.000 C 204.159 130.671,204.748 130.747,204.994 130.107 C 205.090 129.858,205.107 129.246,205.032 128.747 C 204.924 128.027,204.885 128.105,204.843 129.120 M332.279 130.080 C 332.317 131.277,332.782 131.733,333.074 130.859 C 333.145 130.646,333.050 130.566,332.862 130.682 C 332.656 130.809,332.466 130.480,332.380 129.846 C 332.264 128.991,332.246 129.033,332.279 130.080 M284.853 131.040 C 284.805 132.111,285.272 133.075,285.653 132.693 C 285.790 132.557,285.739 132.345,285.540 132.222 C 285.341 132.099,285.114 131.566,285.037 131.039 L 284.896 130.080 284.853 131.040 M282.960 134.960 C 297.524 135.006,321.356 135.006,335.920 134.960 C 350.484 134.914,338.568 134.876,309.440 134.876 C 280.312 134.876,268.396 134.914,282.960 134.960 M363.520 169.920 L 363.520 199.360 273.120 199.360 L 182.720 199.360 182.720 169.920 L 182.720 140.480 273.120 140.480 L 363.520 140.480 363.520 169.920 M266.713 158.480 C 266.268 159.399,266.267 159.447,266.705 158.899 C 266.977 158.557,267.205 158.125,267.210 157.939 C 267.216 157.752,267.432 157.880,267.690 158.221 C 268.188 158.879,268.286 158.781,267.966 157.946 C 267.667 157.168,267.265 157.339,266.713 158.480 M269.789 162.400 C 269.789 162.576,270.136 163.368,270.560 164.160 C 270.984 164.952,271.331 165.456,271.331 165.280 C 271.331 165.104,270.984 164.312,270.560 163.520 C 270.136 162.728,269.789 162.224,269.789 162.400 M260.925 167.120 C 260.285 168.396,259.635 169.488,259.481 169.547 C 259.326 169.605,259.200 169.794,259.200 169.966 C 259.200 170.137,259.348 170.186,259.529 170.075 C 259.896 169.847,262.498 164.800,262.248 164.800 C 262.160 164.800,261.565 165.844,260.925 167.120 M342.772 165.934 C 342.236 167.110,342.338 167.361,342.918 166.292 C 343.189 165.792,343.350 165.324,343.277 165.250 C 343.204 165.177,342.977 165.485,342.772 165.934 M323.337 166.263 C 323.614 166.539,323.840 166.923,323.840 167.116 C 323.840 167.309,323.924 167.383,324.026 167.281 C 324.285 167.022,323.571 165.760,323.166 165.760 C 322.984 165.760,323.061 165.986,323.337 166.263 M299.834 168.240 C 300.248 169.096,300.810 169.191,300.775 168.400 C 300.758 168.038,300.690 167.988,300.582 168.257 C 300.457 168.570,300.300 168.530,299.950 168.097 C 299.522 167.566,299.513 167.578,299.834 168.240 M322.870 169.298 C 322.671 169.670,322.579 170.045,322.665 170.132 C 322.751 170.218,322.922 169.970,323.046 169.582 C 323.221 169.030,323.331 168.972,323.550 169.318 C 323.734 169.608,323.832 169.629,323.835 169.379 C 323.844 168.669,323.234 168.618,322.870 169.298 M189.040 169.519 C 191.196 169.574,194.724 169.574,196.880 169.519 C 199.036 169.464,197.272 169.418,192.960 169.418 C 188.648 169.418,186.884 169.464,189.040 169.519 M352.080 169.518 C 353.620 169.577,356.140 169.577,357.680 169.518 C 359.220 169.460,357.960 169.412,354.880 169.412 C 351.800 169.412,350.540 169.460,352.080 169.518 M201.604 170.075 C 201.279 170.467,199.788 170.565,193.005 170.640 L 184.800 170.731 192.990 170.806 C 200.825 170.877,201.206 170.852,201.760 170.240 C 202.079 169.888,202.263 169.600,202.169 169.600 C 202.075 169.600,201.821 169.814,201.604 170.075 M360.640 170.019 C 360.640 170.484,359.977 170.556,354.960 170.640 L 349.280 170.736 354.970 170.808 C 360.604 170.879,361.799 170.652,360.840 169.693 C 360.730 169.583,360.640 169.730,360.640 170.019 M340.057 171.695 C 339.306 173.271,339.411 173.540,340.197 172.050 C 340.554 171.373,340.790 170.763,340.720 170.694 C 340.651 170.625,340.353 171.075,340.057 171.695 M282.211 172.092 L 281.120 173.280 282.284 172.212 C 283.115 171.449,283.497 171.266,283.619 171.572 C 283.730 171.851,283.798 171.867,283.815 171.619 C 283.870 170.781,283.246 170.965,282.211 172.092 M300.352 171.648 C 300.578 172.238,301.195 172.189,301.316 171.572 C 301.360 171.348,301.321 171.328,301.225 171.525 C 301.110 171.761,300.916 171.749,300.602 171.488 C 300.231 171.181,300.184 171.211,300.352 171.648 M275.543 171.680 C 275.543 171.856,275.748 172.360,276.000 172.800 C 276.252 173.240,276.457 173.456,276.457 173.280 C 276.457 173.104,276.252 172.600,276.000 172.160 C 275.748 171.720,275.543 171.504,275.543 171.680 M225.278 172.551 C 224.954 173.220,224.963 173.232,225.390 172.703 C 225.740 172.270,225.897 172.230,226.022 172.543 C 226.136 172.825,226.198 172.837,226.215 172.579 C 226.263 171.847,225.629 171.828,225.278 172.551 M325.149 172.640 C 325.149 172.816,325.496 173.608,325.920 174.400 C 326.344 175.192,326.691 175.696,326.691 175.520 C 326.691 175.344,326.344 174.552,325.920 173.760 C 325.496 172.968,325.149 172.464,325.149 172.640 M340.532 173.614 C 339.996 174.790,340.098 175.041,340.678 173.972 C 340.949 173.472,341.110 173.004,341.037 172.930 C 340.964 172.857,340.737 173.165,340.532 173.614 M275.223 173.920 C 275.223 174.096,275.428 174.600,275.680 175.040 C 275.932 175.480,276.137 175.696,276.137 175.520 C 276.137 175.344,275.932 174.840,275.680 174.400 C 275.428 173.960,275.223 173.744,275.223 173.920 M278.409 174.550 C 278.001 174.985,277.522 175.250,277.344 175.141 C 277.153 175.023,277.121 175.103,277.266 175.337 C 277.471 175.669,279.360 174.336,279.360 173.860 C 279.360 173.624,279.106 173.808,278.409 174.550 M228.586 198.320 C 253.196 198.365,293.372 198.365,317.866 198.320 C 342.360 198.275,322.224 198.238,273.120 198.238 C 224.016 198.238,203.976 198.275,228.586 198.320 M82.075 281.600 C 82.075 302.808,82.113 311.484,82.160 300.880 C 82.207 290.276,82.207 272.924,82.160 262.320 C 82.113 251.716,82.075 260.392,82.075 281.600 " stroke="none" fill="#e0e012" fill-rule="evenodd"></path></g></svg>