<?xml version="1.0" standalone="no"?>
<!DOCTYPE svg PUBLIC "-//W3C//DTD SVG 20010904//EN"
 "http://www.w3.org/TR/2001/REC-SVG-20010904/DTD/svg10.dtd">
<svg version="1.0" xmlns="http://www.w3.org/2000/svg"
 width="1200.000000pt" height="1200.000000pt" viewBox="0 0 1200.000000 1200.000000"
 preserveAspectRatio="xMidYMid meet">
<metadata>
Created by potrace 1.11, written by Peter Selinger 2001-2013
</metadata>
<g transform="translate(0.000000,1200.000000) scale(0.100000,-0.100000)"
fill="#000000" stroke="none">
<path d="M5778 11995 c-2 -1 -67 -6 -145 -9 -78 -4 -152 -9 -165 -11 -13 -2
-54 -6 -93 -10 -38 -3 -81 -8 -95 -10 -14 -2 -47 -7 -75 -10 -174 -20 -432
-70 -659 -126 -778 -193 -1479 -527 -2141 -1019 -447 -332 -858 -743 -1205
-1205 -615 -820 -1022 -1815 -1145 -2805 -4 -30 -9 -62 -10 -71 -2 -9 -6 -52
-10 -95 -4 -43 -9 -92 -11 -109 -25 -199 -24 -803 1 -1045 14 -130 37 -323 46
-380 17 -109 19 -123 30 -180 161 -861 502 -1669 1000 -2370 94 -133 284 -375
360 -460 17 -19 54 -62 82 -94 122 -141 399 -409 592 -572 682 -579 1527
-1013 2390 -1228 250 -62 564 -121 745 -140 315 -33 439 -40 720 -41 357 0
629 20 955 71 425 66 854 185 1280 354 215 85 496 217 660 310 108 61 138 78
245 143 236 144 624 424 736 532 6 5 35 30 64 55 149 125 408 381 566 561 696
789 1185 1771 1384 2779 11 58 22 116 25 130 10 50 54 367 60 435 4 39 9 86
11 105 25 213 24 805 -2 1055 -44 427 -90 685 -189 1050 -199 735 -541 1426
-1011 2045 -56 74 -111 144 -121 155 -10 12 -38 45 -63 75 -89 110 -213 243
-360 390 -138 137 -184 180 -305 285 -128 111 -151 129 -320 257 -493 372
-997 644 -1605 864 -246 90 -678 204 -935 248 -131 23 -292 46 -350 51 -38 3
-77 8 -85 10 -8 2 -58 7 -110 10 -52 4 -113 9 -135 11 -46 5 -602 14 -607 9z"/>
</g>
</svg>
